<svg width="32" height="32" viewBox="0 0 32 32" fill="none" xmlns="http://www.w3.org/2000/svg">
<path d="M23.3333 31.3333C22.6126 31.3333 21.9427 31.1399 21.3236 30.7531C20.7046 30.3663 20.2361 29.8189 19.9182 29.1111H18.0111L18.0111 27.8766H19.4969C19.4341 27.5803 19.4017 27.2819 19.3999 26.9815C19.398 26.6811 19.3971 26.3786 19.3971 26.0741H18V24.8395H19.3971C19.3971 24.5185 19.3999 24.1996 19.4054 23.8827C19.4109 23.5658 19.4488 23.251 19.5191 22.9383H18.0111V21.7037H19.9626C20.1178 21.3786 20.3128 21.0885 20.5475 20.8333C20.7822 20.5782 21.0455 20.3621 21.3375 20.1852L20.1289 18.8395L20.8829 18L22.4019 19.6914C22.7124 19.572 23.0266 19.5124 23.3444 19.5124C23.6623 19.5124 23.9764 19.572 24.2869 19.6914L25.817 18L26.571 18.8395L25.3624 20.1852C25.6544 20.3621 25.9141 20.5792 26.1414 20.8364C26.3687 21.0936 26.5673 21.3827 26.7374 21.7037H28.6667V22.9383H27.1476C27.2252 23.251 27.2631 23.5658 27.2613 23.8827C27.2594 24.1996 27.2585 24.5185 27.2585 24.8395H28.6667V26.0741H27.2585C27.2585 26.3786 27.2594 26.6811 27.2613 26.9815C27.2631 27.2819 27.2326 27.5803 27.1698 27.8766H28.6667V29.1111H26.7595C26.4491 29.8272 25.9824 30.3765 25.3597 30.7593C24.7369 31.142 24.0614 31.3333 23.3333 31.3333ZM23.3333 30.0988C24.1095 30.0988 24.7729 29.7942 25.3236 29.1852C25.8743 28.5761 26.1497 27.8395 26.1497 26.9753V23.9259C26.1497 23.0617 25.8743 22.3251 25.3236 21.7161C24.7729 21.107 24.1095 20.8025 23.3333 20.8025C22.5572 20.8025 21.8937 21.107 21.343 21.7161C20.7923 22.3251 20.517 23.0617 20.517 23.9259V26.9753C20.517 27.8395 20.7923 28.5761 21.343 29.1852C21.8937 29.7942 22.5572 30.0988 23.3333 30.0988ZM22.0028 27.6296H24.6639V26.3951H22.0028V27.6296ZM22.0028 24.5062H24.6639V23.2716H22.0028V24.5062Z" fill="#C4CCDB"/>
<path fill-rule="evenodd" clip-rule="evenodd" d="M14.666 7.3335H15.9993V14.0893L19.6519 16.0816L19.0134 17.2521L14.666 14.8808V7.3335Z" fill="#C4CCDB"/>
<path fill-rule="evenodd" clip-rule="evenodd" d="M15.3333 3.99984C9.81049 3.99984 5.33333 8.47699 5.33333 13.9998C5.33333 19.5227 9.81049 23.9998 15.3333 23.9998V25.3332C9.07411 25.3332 4 20.2591 4 13.9998C4 7.74061 9.07411 2.6665 15.3333 2.6665C21.5926 2.6665 26.6667 7.74061 26.6667 13.9998C26.6667 14.451 26.6403 14.896 26.589 15.3333H25.2452C25.3033 14.8971 25.3333 14.452 25.3333 13.9998C25.3333 8.47699 20.8562 3.99984 15.3333 3.99984Z" fill="#C4CCDB"/>
</svg>
