<svg width="32" height="32" viewBox="0 0 32 32" fill="none" xmlns="http://www.w3.org/2000/svg">
<g clip-path="url(#clip0_2569_12278)">
<path d="M18.465 18.4654C17.9553 18.9751 17.3449 19.312 16.6336 19.4762C15.9223 19.6404 15.204 19.5847 14.4788 19.3089L13.1302 20.6575L12.2572 19.7845L13.3079 18.7339C13.0539 18.5688 12.8201 18.3807 12.6063 18.1696C12.3926 17.9585 12.1781 17.7453 11.9627 17.5299L10.9749 18.5178L10.1019 17.6449L11.0898 16.657C10.8628 16.43 10.6392 16.2025 10.4191 15.9745C10.199 15.7466 10.0031 15.4971 9.83164 15.2263L8.76535 16.2926L7.89238 15.4197L9.27229 14.0398C9.15218 13.7001 9.08489 13.3571 9.07043 13.0107C9.05597 12.6644 9.08941 12.3254 9.17075 11.9938L7.36461 11.8968L7.30414 10.7701L9.57423 10.8919C9.70938 10.588 9.88934 10.3237 10.1141 10.0989C10.3389 9.87415 10.6032 9.6942 10.9071 9.55905L10.7931 7.28111L11.9199 7.34157L12.0168 9.14772C12.3484 9.06639 12.6855 9.03629 13.0281 9.05744C13.3707 9.07857 13.7156 9.14252 14.0628 9.24927L15.427 7.88504L16.3 8.758L15.2258 9.83214C15.5019 9.99842 15.7513 10.1942 15.974 10.4196C16.1968 10.645 16.4217 10.8711 16.6486 11.0981L17.6444 10.1024L18.5173 10.9754L17.5216 11.9711C17.7369 12.1864 17.9515 12.3996 18.1652 12.6108C18.3789 12.8219 18.5683 13.0544 18.7334 13.3084L19.7919 12.2499L20.6648 13.1229L19.3163 14.4714C19.6031 15.1973 19.6616 15.9157 19.4918 16.6267C19.3221 17.3377 18.9798 17.9506 18.465 18.4654ZM17.592 17.5925C18.1408 17.0437 18.3946 16.3592 18.3533 15.5391C18.3121 14.7191 17.9859 14.0035 17.3748 13.3924L15.2186 11.2362C14.6075 10.6251 13.8919 10.2989 13.0719 10.2577C12.2518 10.2164 11.5673 10.4702 11.0185 11.019C10.4697 11.5678 10.2159 12.2523 10.2572 13.0724C10.2984 13.8924 10.6246 14.608 11.2357 15.2191L13.3919 17.3753C14.003 17.9864 14.7186 18.3126 15.5386 18.3538C16.3587 18.3951 17.0432 18.1413 17.592 17.5925ZM14.9052 16.7874L16.7869 14.9057L15.9139 14.0327L14.0322 15.9144L14.9052 16.7874ZM12.6966 14.5788L14.5783 12.6971L13.7053 11.8241L11.8236 13.7058L12.6966 14.5788Z" fill="#C4CCDB"/>
<path fill-rule="evenodd" clip-rule="evenodd" d="M20.2941 22.178C16.1095 25.4346 10.0567 25.1397 6.21044 21.2934C2.04485 17.1279 2.04485 10.3741 6.21044 6.2085C10.376 2.04291 17.1298 2.04291 21.2954 6.2085C25.1417 10.0549 25.4365 16.1079 22.1797 20.2924L28.3061 26.4188L26.4205 28.3044L20.2941 22.178ZM20.3333 20.3697C16.6869 23.9955 10.7916 23.9892 7.15305 20.3506C3.50816 16.7057 3.50816 10.7962 7.15305 7.15131C10.7979 3.50642 16.7075 3.50642 20.3524 7.15131C23.9909 10.7898 23.9973 16.6851 20.3714 20.3315L20.3333 20.3697Z" fill="#C4CCDB"/>
</g>
<defs>
<clipPath id="clip0_2569_12278">
<rect width="32" height="32" fill="white"/>
</clipPath>
</defs>
</svg>
