<svg width="32" height="32" viewBox="0 0 32 32" fill="none" xmlns="http://www.w3.org/2000/svg">
<path fill-rule="evenodd" clip-rule="evenodd" d="M16.5867 24.6411C16.5552 24.3719 16.5391 24.098 16.5391 23.8203C16.5391 23.6479 16.5453 23.477 16.5575 23.3077H9.7436V22.4462C9.7436 22.1333 9.8218 21.8598 9.9782 21.6257C10.1346 21.3915 10.4154 21.1675 10.8205 20.9539C11.8154 20.4222 12.8641 20.015 13.9667 19.7321C15.0692 19.4492 16.3282 19.3077 17.7436 19.3077C17.892 19.3077 18.0387 19.3093 18.1836 19.3124C18.5868 18.8339 19.0529 18.4102 19.5692 18.0541C18.9983 18.0009 18.3897 17.9744 17.7436 17.9744C16.1402 17.9744 14.7684 18.138 13.6282 18.4654C12.488 18.7928 11.3397 19.2318 10.1832 19.7824C9.64227 20.0488 9.21155 20.4047 8.89103 20.85C8.57052 21.2953 8.41027 21.8274 8.41027 22.4462V24.6411H16.5867ZM5.7436 22.3846V24.6411H2V22.3846C2 21.8482 2.1641 21.3534 2.4923 20.9003C2.8205 20.4471 3.27349 20.0752 3.85127 19.7846C4.44444 19.4889 5.04446 19.2227 5.6513 18.9859C6.25812 18.7491 6.88889 18.5641 7.5436 18.4308C6.96913 18.922 6.52551 19.5106 6.21273 20.1966C5.89998 20.8827 5.7436 21.612 5.7436 22.3846ZM20.5686 13.825C19.7853 14.6084 18.8436 15 17.7436 15C16.6436 15 15.7019 14.6084 14.9186 13.825C14.1353 13.0417 13.7436 12.1 13.7436 11C13.7436 9.90001 14.1353 8.95833 14.9186 8.175C15.7019 7.39167 16.6436 7 17.7436 7C18.8436 7 19.7853 7.39167 20.5686 8.175C21.3519 8.95833 21.7436 9.90001 21.7436 11C21.7436 12.1 21.3519 13.0417 20.5686 13.825ZM9.22627 13.825C8.44293 13.0417 8.05126 12.1 8.05126 11C8.05126 9.90001 8.44293 8.95833 9.22627 8.175C10.0096 7.39167 10.9513 7 12.0513 7C12.1231 7 12.1949 7.00384 12.2667 7.01153C12.3385 7.01924 12.4103 7.03591 12.4821 7.06153C12.053 7.63591 11.7115 8.25387 11.4577 8.9154C11.2039 9.57693 11.0769 10.2707 11.0769 10.9968C11.0769 11.7229 11.1982 12.4231 11.4408 13.0973C11.6833 13.7716 12.0304 14.3853 12.4821 14.9385C12.4256 14.9539 12.3538 14.968 12.2667 14.9808C12.1795 14.9936 12.1077 15 12.0513 15C10.9513 15 10.0096 14.6084 9.22627 13.825ZM15.8603 12.8834C16.3825 13.4056 17.0103 13.6667 17.7436 13.6667C18.4769 13.6667 19.1047 13.4056 19.6269 12.8834C20.1492 12.3611 20.4103 11.7334 20.4103 11C20.4103 10.2667 20.1492 9.63892 19.6269 9.1167C19.1047 8.59448 18.4769 8.33337 17.7436 8.33337C17.0103 8.33337 16.3825 8.59448 15.8603 9.1167C15.338 9.63892 15.0769 10.2667 15.0769 11C15.0769 11.7334 15.338 12.3611 15.8603 12.8834Z" fill="#C4CCDB"/>
<path d="M23.0277 28.1953L22.8319 26.6286C22.659 26.5766 22.472 26.4946 22.271 26.3828C22.0699 26.271 21.8989 26.1512 21.7579 26.0234L20.3132 26.638L19.3027 24.8776L20.5517 23.9359C20.5357 23.838 20.5225 23.7371 20.5121 23.6333C20.5017 23.5295 20.4965 23.4286 20.4965 23.3307C20.4965 23.2398 20.5017 23.1441 20.5121 23.0438C20.5225 22.9434 20.5357 22.8304 20.5517 22.7047L19.3027 21.763L20.3132 20.0234L21.7475 20.6276C21.9093 20.4929 22.0843 20.3714 22.2725 20.263C22.4607 20.1547 22.6437 20.071 22.8215 20.012L23.0277 18.4453H25.0486L25.2444 20.0224C25.4521 20.0953 25.6356 20.179 25.7949 20.2734C25.9543 20.3679 26.1184 20.4859 26.2871 20.6276L27.7632 20.0234L28.7736 21.763L27.483 22.7359C27.5128 22.8477 27.5295 22.9503 27.533 23.0438C27.5364 23.1372 27.5382 23.2293 27.5382 23.3203C27.5382 23.4043 27.5347 23.4931 27.5278 23.5865C27.5208 23.6799 27.5048 23.7929 27.4798 23.9255L28.7496 24.8776L27.7392 26.638L26.2871 26.013C26.1184 26.1547 25.9486 26.2762 25.7777 26.3776C25.6069 26.479 25.4291 26.5592 25.2444 26.6182L25.0486 28.1953H23.0277ZM24.0236 24.6745C24.4014 24.6745 24.7215 24.5432 24.984 24.2807C25.2465 24.0182 25.3777 23.6981 25.3777 23.3203C25.3777 22.9425 25.2465 22.6224 24.984 22.3599C24.7215 22.0974 24.4014 21.9661 24.0236 21.9661C23.6437 21.9661 23.3231 22.0974 23.0616 22.3599C22.8001 22.6224 22.6694 22.9425 22.6694 23.3203C22.6694 23.6981 22.8001 24.0182 23.0616 24.2807C23.3231 24.5432 23.6437 24.6745 24.0236 24.6745Z" fill="#C4CCDB"/>
</svg>
