<svg width="32" height="32" viewBox="0 0 32 32" fill="none" xmlns="http://www.w3.org/2000/svg">
<path d="M15.8333 27.1112C15.937 27.1112 16.0518 27.0853 16.1777 27.0334C16.3037 26.9816 16.4037 26.9186 16.4777 26.8445L27.6111 15.689C27.8926 15.4075 28.1018 15.0877 28.2389 14.7297C28.3759 14.3717 28.4444 14.0137 28.4444 13.6556C28.4444 13.2853 28.3759 12.9204 28.2389 12.5612C28.1018 12.2019 27.8926 11.8853 27.6111 11.6112L21.7222 5.72227C21.4481 5.4408 21.1314 5.23154 20.7722 5.0945C20.4129 4.95745 20.0481 4.88893 19.6777 4.88893C19.3197 4.88893 18.9617 4.95745 18.6037 5.0945C18.2456 5.23154 17.9259 5.4408 17.6444 5.72227L17.1222 6.2445L19.7444 8.90007C20.0481 9.21118 20.3 9.57043 20.5 9.97783C20.7 10.3853 20.8 10.826 20.8 11.3001C20.8 12.1741 20.4759 12.9315 19.8277 13.5723C19.1796 14.213 18.4185 14.5334 17.5444 14.5334C17.0259 14.5334 16.5759 14.4519 16.1944 14.289C15.8129 14.126 15.469 13.8901 15.1625 13.5814L12.7 11.1334L6.7333 17.1001C6.63701 17.1964 6.56849 17.2984 6.52774 17.4062C6.487 17.514 6.46664 17.6295 6.46664 17.7527C6.46664 17.9991 6.55182 18.2093 6.7222 18.3834C6.89256 18.5575 7.10119 18.6445 7.3481 18.6445C7.47157 18.6445 7.58886 18.6149 7.69997 18.5556C7.81108 18.4964 7.90367 18.4297 7.97774 18.3556L12.5555 13.7779L14.1111 15.3334L9.56664 19.889C9.47035 19.9853 9.40182 20.0908 9.36107 20.2056C9.32034 20.3204 9.29997 20.4371 9.29997 20.5556C9.29997 20.7927 9.38886 21.0001 9.56664 21.1779C9.74441 21.3556 9.95182 21.4445 10.1889 21.4445C10.3074 21.4445 10.4222 21.4186 10.5333 21.3667C10.6444 21.3149 10.737 21.2519 10.8111 21.1779L15.3889 16.6112L16.9444 18.1667L12.4 22.7223C12.3185 22.7964 12.2537 22.8951 12.2055 23.0186C12.1574 23.142 12.1333 23.2655 12.1333 23.389C12.1333 23.626 12.2222 23.8334 12.4 24.0112C12.5777 24.189 12.7852 24.2779 13.0222 24.2779C13.1407 24.2779 13.25 24.2575 13.35 24.2167C13.45 24.176 13.5481 24.1075 13.6444 24.0112L18.2222 19.4445L19.7777 21.0001L15.2 25.5778C15.1037 25.6741 15.0352 25.7797 14.9944 25.8945C14.9537 26.0093 14.9333 26.1186 14.9333 26.2223C14.9333 26.489 15.0166 26.7038 15.1833 26.8667C15.35 27.0297 15.5666 27.1112 15.8333 27.1112ZM15.8236 29.3334C15.0597 29.3334 14.3796 29.0612 13.7833 28.5167C13.187 27.9723 12.8333 27.2955 12.7222 26.4863C11.9666 26.377 11.3333 26.0667 10.8222 25.5556C10.3111 25.0445 9.99998 24.4112 9.88887 23.6556C9.13331 23.5445 8.50554 23.2279 8.00554 22.7056C7.50554 22.1834 7.19998 21.5556 7.08887 20.8223C6.25925 20.7112 5.57777 20.3667 5.04444 19.789C4.5111 19.2112 4.24444 18.5223 4.24444 17.7223C4.24444 17.3223 4.32201 16.9275 4.47717 16.5379C4.63235 16.1483 4.85476 15.806 5.1444 15.5112L12.7 7.96673L16.6 11.8667C16.7333 12.0075 16.8839 12.1167 17.0518 12.1945C17.2197 12.2723 17.3876 12.3112 17.5555 12.3112C17.8148 12.3112 18.0518 12.2056 18.2666 11.9945C18.4815 11.7834 18.5889 11.5471 18.5889 11.2855C18.5889 11.1693 18.5574 11.0408 18.4944 10.9001C18.4315 10.7593 18.3296 10.6223 18.1889 10.4889L13.4222 5.72227C13.1481 5.4408 12.8314 5.23154 12.4722 5.0945C12.1129 4.95745 11.7481 4.88893 11.3777 4.88893C11.0197 4.88893 10.6617 4.95745 10.3037 5.0945C9.94565 5.23154 9.62632 5.43974 9.3457 5.7191L4.39997 10.6778C4.12588 10.9519 3.92588 11.2482 3.79997 11.5667C3.67404 11.8852 3.59626 12.2334 3.56664 12.6112C3.53699 12.989 3.59255 13.3612 3.7333 13.7279C3.87404 14.0945 4.05551 14.4297 4.27774 14.7334L2.67774 16.3334C2.25551 15.8371 1.92218 15.2575 1.67774 14.5945C1.43329 13.9316 1.31848 13.2593 1.3333 12.5779C1.34812 11.926 1.48516 11.2982 1.7444 10.6945C2.00367 10.0908 2.36664 9.55563 2.8333 9.08897L7.75554 4.16673C8.25922 3.67044 8.82621 3.30008 9.4565 3.05563C10.0868 2.81119 10.7331 2.68896 11.3954 2.68896C12.0577 2.68896 12.7018 2.81119 13.3277 3.05563C13.9537 3.30008 14.5148 3.67044 15.0111 4.16673L15.5333 4.68896L16.0555 4.16673C16.5592 3.67044 17.1262 3.30008 17.7565 3.05563C18.3868 2.81119 19.0331 2.68896 19.6954 2.68896C20.3577 2.68896 21.0018 2.81119 21.6277 3.05563C22.2537 3.30008 22.8148 3.67044 23.3111 4.16673L29.1666 10.0223C29.6629 10.5186 30.037 11.0855 30.2889 11.723C30.5407 12.3605 30.6666 13.0087 30.6666 13.6675C30.6666 14.3262 30.5407 14.9686 30.2889 15.5945C30.037 16.2204 29.6629 16.7815 29.1666 17.2778L18.0333 28.4001C17.737 28.6964 17.3979 28.926 17.0159 29.089C16.634 29.2519 16.2365 29.3334 15.8236 29.3334Z" fill="#C4CCDB"/>
</svg>
