<svg width="116" height="82" viewBox="0 0 116 82" fill="none" xmlns="http://www.w3.org/2000/svg">
<path d="M29.5547 41.8003H38.3125V50.5582H29.5547V41.8003Z" fill="white"/>
<path fill-rule="evenodd" clip-rule="evenodd" d="M37.5828 42.5302H30.2845V49.8285H37.5828V42.5302ZM29.5547 41.8003V50.5582H38.3125V41.8003H29.5547Z" fill="#0E0E18"/>
<path d="M86.086 41.8003H77.3281V50.5582H86.086V41.8003Z" fill="white"/>
<path fill-rule="evenodd" clip-rule="evenodd" d="M78.058 42.5302H85.3563V49.8285H78.058V42.5302ZM86.086 41.8003V50.5582H77.3281V41.8003H86.086Z" fill="#0E0E18"/>
<path d="M58.2188 41.8003H66.9768V50.5582H58.2188V41.8003Z" fill="white"/>
<path fill-rule="evenodd" clip-rule="evenodd" d="M66.2469 42.5302H58.9486V49.8285H66.2469V42.5302ZM58.2188 41.8003V50.5582H66.9768V41.8003H58.2188Z" fill="#0E0E18"/>
<path d="M58.2188 32.311H66.9768V41.0689H58.2188V32.311Z" fill="white"/>
<path fill-rule="evenodd" clip-rule="evenodd" d="M66.2469 33.0409H58.9486V40.3392H66.2469V33.0409ZM58.2188 32.311V41.0689H66.9768V32.311H58.2188Z" fill="#0E0E18"/>
<path d="M62.3223 33.0132H66.9746V41.0704H62.3223V33.0132Z" fill="#0E0E18"/>
<path fill-rule="evenodd" clip-rule="evenodd" d="M66.2448 33.7431H63.0521V40.3407H66.2448V33.7431ZM62.3223 33.0132V41.0704H66.9746V33.0132H62.3223Z" fill="#0E0E18"/>
<path d="M58.2188 22.8223H66.9768V31.5801H58.2188V22.8223Z" fill="white"/>
<path fill-rule="evenodd" clip-rule="evenodd" d="M66.2469 23.5521H58.9486V30.8504H66.2469V23.5521ZM58.2188 22.8223V31.5801H66.9768V22.8223H58.2188Z" fill="#0E0E18"/>
<path d="M62.6904 17.8052L66.9768 13.3335V22.0914H58.2188L62.6904 17.8052Z" fill="white"/>
<path fill-rule="evenodd" clip-rule="evenodd" d="M63.2066 18.3213L60.0348 21.3617H66.2469V15.1496L63.2066 18.3213ZM62.6904 17.8052L58.2188 22.0914H66.9768V13.3335L62.6904 17.8052Z" fill="#0E0E18"/>
<path d="M39.1094 41.8003H47.8672V50.5582H39.1094V41.8003Z" fill="white"/>
<path fill-rule="evenodd" clip-rule="evenodd" d="M47.1375 42.5302H39.8393V49.8285H47.1375V42.5302ZM39.1094 41.8003V50.5582H47.8672V41.8003H39.1094Z" fill="#0E0E18"/>
<path d="M39.1094 32.311H47.8672V41.0689H39.1094V32.311Z" fill="white"/>
<path fill-rule="evenodd" clip-rule="evenodd" d="M47.1375 33.0409H39.8393V40.3392H47.1375V33.0409ZM39.1094 32.311V41.0689H47.8672V32.311H39.1094Z" fill="#0E0E18"/>
<path d="M39.1094 22.8223H47.8672V31.5801H39.1094V22.8223Z" fill="white"/>
<path fill-rule="evenodd" clip-rule="evenodd" d="M47.1375 23.5521H39.8393V30.8504H47.1375V23.5521ZM39.1094 22.8223V31.5801H47.8672V22.8223H39.1094Z" fill="#0E0E18"/>
<path d="M39.1094 13.3335H47.8672V22.0914H39.1094V13.3335Z" fill="white"/>
<path fill-rule="evenodd" clip-rule="evenodd" d="M47.1375 14.0634H39.8393V21.3617H47.1375V14.0634ZM39.1094 13.3335V22.0914H47.8672V13.3335H39.1094Z" fill="#0E0E18"/>
<path d="M67.7695 41.8003H76.5276V50.5582H67.7695V41.8003Z" fill="white"/>
<path fill-rule="evenodd" clip-rule="evenodd" d="M75.7977 42.5302H68.4994V49.8285H75.7977V42.5302ZM67.7695 41.8003V50.5582H76.5276V41.8003H67.7695Z" fill="#0E0E18"/>
<path d="M67.7695 32.311H76.5276V41.0689H67.7695V32.311Z" fill="white"/>
<path fill-rule="evenodd" clip-rule="evenodd" d="M75.7977 33.0409H68.4994V40.3392H75.7977V33.0409ZM67.7695 32.311V41.0689H76.5276V32.311H67.7695Z" fill="#0E0E18"/>
<path d="M67.7695 22.8223H76.5276V31.5801H67.7695V22.8223Z" fill="white"/>
<path fill-rule="evenodd" clip-rule="evenodd" d="M75.7977 23.5521H68.4994V30.8504H75.7977V23.5521ZM67.7695 22.8223V31.5801H76.5276V22.8223H67.7695Z" fill="#0E0E18"/>
<path d="M67.7695 13.3335H76.5276V22.0914H67.7695V13.3335Z" fill="white"/>
<path fill-rule="evenodd" clip-rule="evenodd" d="M75.7977 14.0634H68.4994V21.3617H75.7977V14.0634ZM67.7695 13.3335V22.0914H76.5276V13.3335H67.7695Z" fill="#0E0E18"/>
<path d="M48.6621 41.8003H57.4202V50.5582H48.6621V41.8003Z" fill="white"/>
<path fill-rule="evenodd" clip-rule="evenodd" d="M56.6903 42.5302H49.392V49.8285H56.6903V42.5302ZM48.6621 41.8003V50.5582H57.4202V41.8003H48.6621Z" fill="#0E0E18"/>
<path d="M48.6621 32.311H57.4202V41.0689H48.6621V32.311Z" fill="white"/>
<path fill-rule="evenodd" clip-rule="evenodd" d="M56.6903 33.0409H49.392V40.3392H56.6903V33.0409ZM48.6621 32.311V41.0689H57.4202V32.311H48.6621Z" fill="#0E0E18"/>
<path d="M48.6621 22.8223H57.4202V31.5801H48.6621V22.8223Z" fill="white"/>
<path fill-rule="evenodd" clip-rule="evenodd" d="M56.6903 23.5521H49.392V30.8504H56.6903V23.5521ZM48.6621 22.8223V31.5801H57.4202V22.8223H48.6621Z" fill="#0E0E18"/>
<path d="M48.6621 13.3335L52.953 17.8004L57.4202 22.0914H48.6621V13.3335Z" fill="white"/>
<path fill-rule="evenodd" clip-rule="evenodd" d="M52.953 17.8004L48.6621 13.3335V22.0914H57.4202L52.953 17.8004ZM55.6067 21.3617L52.4369 18.3166L49.392 15.1467V21.3617H55.6067Z" fill="#0E0E18"/>
<path d="M52.7598 32.311H56.9904V41.0689H52.7598V32.311Z" fill="#0E0E18"/>
<path fill-rule="evenodd" clip-rule="evenodd" d="M56.2605 33.0409H53.4897V40.3392H56.2605V33.0409ZM52.7598 32.311V41.0689H56.9904V32.311H52.7598Z" fill="#0E0E18"/>
<path d="M7.736 74.6H4.064V80H1.706V67.436H4.064V72.656H7.736V67.436H10.094V80H7.736V74.6ZM19.033 80C18.469 80 18.031 79.862 17.719 79.586C17.419 79.298 17.239 78.902 17.179 78.398H17.089C16.921 78.974 16.591 79.424 16.099 79.748C15.607 80.06 15.001 80.216 14.281 80.216C13.345 80.216 12.601 79.97 12.049 79.478C11.497 78.986 11.221 78.302 11.221 77.426C11.221 75.554 12.595 74.618 15.343 74.618H16.981V74.006C16.981 73.418 16.837 72.974 16.549 72.674C16.261 72.374 15.793 72.224 15.145 72.224C14.557 72.224 14.083 72.338 13.723 72.566C13.363 72.794 13.057 73.088 12.805 73.448L11.491 72.332C11.779 71.816 12.241 71.384 12.877 71.036C13.525 70.676 14.359 70.496 15.379 70.496C16.603 70.496 17.557 70.784 18.241 71.36C18.937 71.924 19.285 72.77 19.285 73.898V78.272H20.383V80H19.033ZM15.055 78.632C15.607 78.632 16.063 78.506 16.423 78.254C16.795 77.99 16.981 77.636 16.981 77.192V75.95H15.397C14.137 75.95 13.507 76.346 13.507 77.138V77.498C13.507 77.87 13.645 78.152 13.921 78.344C14.197 78.536 14.575 78.632 15.055 78.632ZM25.9559 80C25.0679 80 24.4139 79.766 23.9939 79.298C23.5739 78.83 23.3639 78.224 23.3639 77.48V72.53H20.6639V70.712H22.4999C22.8719 70.712 23.1359 70.64 23.2919 70.496C23.4479 70.34 23.5259 70.07 23.5259 69.686V67.436H25.6679V70.712H29.4479V72.53H25.6679V78.182H29.4479V80H25.9559ZM35.0029 80.216C33.9829 80.216 33.1009 80.06 32.3569 79.748C31.6129 79.424 31.0309 78.992 30.6109 78.452L31.9609 77.228C32.3449 77.648 32.7829 77.972 33.2749 78.2C33.7789 78.428 34.3609 78.542 35.0209 78.542C35.5969 78.542 36.0589 78.446 36.4069 78.254C36.7549 78.062 36.9289 77.768 36.9289 77.372C36.9289 77.036 36.8089 76.808 36.5689 76.688C36.3409 76.568 36.0349 76.478 35.6509 76.418L34.1569 76.184C33.7729 76.124 33.3949 76.04 33.0229 75.932C32.6629 75.812 32.3389 75.65 32.0509 75.446C31.7749 75.242 31.5529 74.984 31.3849 74.672C31.2169 74.348 31.1329 73.958 31.1329 73.502C31.1329 72.53 31.4929 71.786 32.2129 71.27C32.9449 70.754 33.9469 70.496 35.2189 70.496C36.1189 70.496 36.8809 70.622 37.5049 70.874C38.1409 71.126 38.6629 71.48 39.0709 71.936L37.8649 73.268C37.6009 72.98 37.2469 72.728 36.8029 72.512C36.3709 72.284 35.8189 72.17 35.1469 72.17C33.9709 72.17 33.3829 72.536 33.3829 73.268C33.3829 73.604 33.5029 73.838 33.7429 73.97C33.9829 74.09 34.2949 74.18 34.6789 74.24L36.1549 74.474C36.5509 74.534 36.9289 74.624 37.2889 74.744C37.6609 74.852 37.9849 75.008 38.2609 75.212C38.5489 75.416 38.7769 75.674 38.9449 75.986C39.1129 76.298 39.1969 76.682 39.1969 77.138C39.1969 78.098 38.8249 78.854 38.0809 79.406C37.3489 79.946 36.3229 80.216 35.0029 80.216Z" fill="white"/>
<path d="M46.994 78.776H50.126V71.936H46.814V70.712H50.126V68.804C50.126 68.18 50.288 67.67 50.612 67.274C50.948 66.878 51.47 66.68 52.178 66.68H55.292V67.904H51.566V70.712H55.292V71.936H51.566V78.776H54.878V80H46.994V78.776ZM61.189 68.66C60.769 68.66 60.475 68.576 60.307 68.408C60.139 68.228 60.055 68.006 60.055 67.742V67.454C60.055 67.19 60.139 66.974 60.307 66.806C60.475 66.626 60.769 66.536 61.189 66.536C61.609 66.536 61.903 66.626 62.071 66.806C62.239 66.974 62.323 67.19 62.323 67.454V67.742C62.323 68.006 62.239 68.228 62.071 68.408C61.903 68.576 61.609 68.66 61.189 68.66ZM57.121 78.776H60.469V71.936H57.121V70.712H61.909V78.776H65.041V80H57.121V78.776ZM66.6899 80V70.712H68.1299V72.224H68.2019C68.2979 71.996 68.4179 71.78 68.5619 71.576C68.7059 71.36 68.8799 71.174 69.0839 71.018C69.2999 70.862 69.5519 70.736 69.8399 70.64C70.1279 70.544 70.4639 70.496 70.8479 70.496C71.8199 70.496 72.5999 70.808 73.1879 71.432C73.7759 72.044 74.0699 72.914 74.0699 74.042V80H72.6299V74.294C72.6299 73.442 72.4439 72.812 72.0719 72.404C71.6999 71.984 71.1539 71.774 70.4339 71.774C70.1459 71.774 69.8639 71.81 69.5879 71.882C69.3119 71.954 69.0659 72.062 68.8499 72.206C68.6339 72.35 68.4599 72.536 68.3279 72.764C68.1959 72.992 68.1299 73.256 68.1299 73.556V80H66.6899ZM83.5489 80C82.9849 80 82.5829 79.856 82.3429 79.568C82.1029 79.28 81.9529 78.92 81.8929 78.488H81.8029C81.5989 79.028 81.2689 79.454 80.8129 79.766C80.3689 80.066 79.7689 80.216 79.0129 80.216C78.0409 80.216 77.2669 79.964 76.6909 79.46C76.1149 78.956 75.8269 78.266 75.8269 77.39C75.8269 76.526 76.1389 75.86 76.7629 75.392C77.3989 74.924 78.4189 74.69 79.8229 74.69H81.8029V73.772C81.8029 73.088 81.6109 72.578 81.2269 72.242C80.8429 71.894 80.2969 71.72 79.5889 71.72C78.9649 71.72 78.4549 71.846 78.0589 72.098C77.6629 72.338 77.3449 72.668 77.1049 73.088L76.1329 72.368C76.2529 72.128 76.4149 71.894 76.6189 71.666C76.8229 71.438 77.0749 71.24 77.3749 71.072C77.6749 70.892 78.0169 70.754 78.4009 70.658C78.7849 70.55 79.2109 70.496 79.6789 70.496C80.7709 70.496 81.6349 70.772 82.2709 71.324C82.9189 71.876 83.2429 72.644 83.2429 73.628V78.74H84.5389V80H83.5489ZM79.2649 79.01C79.6369 79.01 79.9729 78.968 80.2729 78.884C80.5849 78.788 80.8549 78.668 81.0829 78.524C81.3109 78.368 81.4849 78.188 81.6049 77.984C81.7369 77.768 81.8029 77.54 81.8029 77.3V75.77H79.8229C78.9589 75.77 78.3289 75.89 77.9329 76.13C77.5369 76.37 77.3389 76.718 77.3389 77.174V77.552C77.3389 78.032 77.5069 78.398 77.8429 78.65C78.1909 78.89 78.6649 79.01 79.2649 79.01ZM86.1159 80V70.712H87.5559V72.224H87.6279C87.7239 71.996 87.8439 71.78 87.9879 71.576C88.1319 71.36 88.3059 71.174 88.5099 71.018C88.7259 70.862 88.9779 70.736 89.2659 70.64C89.5539 70.544 89.8899 70.496 90.2739 70.496C91.2459 70.496 92.0259 70.808 92.6139 71.432C93.2019 72.044 93.4959 72.914 93.4959 74.042V80H92.0559V74.294C92.0559 73.442 91.8699 72.812 91.4979 72.404C91.1259 71.984 90.5799 71.774 89.8599 71.774C89.5719 71.774 89.2899 71.81 89.0139 71.882C88.7379 71.954 88.4919 72.062 88.2759 72.206C88.0599 72.35 87.8859 72.536 87.7539 72.764C87.6219 72.992 87.5559 73.256 87.5559 73.556V80H86.1159ZM99.7888 80.216C99.1168 80.216 98.5168 80.102 97.9888 79.874C97.4728 79.634 97.0348 79.304 96.6748 78.884C96.3148 78.464 96.0388 77.954 95.8468 77.354C95.6668 76.754 95.5768 76.088 95.5768 75.356C95.5768 74.624 95.6728 73.958 95.8648 73.358C96.0568 72.758 96.3328 72.248 96.6928 71.828C97.0528 71.396 97.4908 71.066 98.0068 70.838C98.5228 70.61 99.1108 70.496 99.7708 70.496C100.671 70.496 101.403 70.694 101.967 71.09C102.531 71.486 102.945 72.002 103.209 72.638L102.057 73.25C101.889 72.77 101.607 72.398 101.211 72.134C100.827 71.87 100.347 71.738 99.7708 71.738C99.3508 71.738 98.9728 71.81 98.6368 71.954C98.3128 72.086 98.0368 72.278 97.8088 72.53C97.5808 72.782 97.4068 73.082 97.2868 73.43C97.1788 73.778 97.1248 74.156 97.1248 74.564V76.148C97.1248 76.556 97.1788 76.934 97.2868 77.282C97.4068 77.63 97.5808 77.93 97.8088 78.182C98.0368 78.434 98.3188 78.632 98.6548 78.776C98.9908 78.908 99.3748 78.974 99.8068 78.974C100.431 78.974 100.947 78.83 101.355 78.542C101.763 78.254 102.087 77.858 102.327 77.354L103.353 78.056C103.077 78.68 102.645 79.196 102.057 79.604C101.481 80.012 100.725 80.216 99.7888 80.216ZM109.34 80.216C108.668 80.216 108.062 80.102 107.522 79.874C106.994 79.646 106.538 79.322 106.154 78.902C105.782 78.47 105.494 77.96 105.29 77.372C105.086 76.772 104.984 76.106 104.984 75.374C104.984 74.63 105.086 73.958 105.29 73.358C105.506 72.758 105.8 72.248 106.172 71.828C106.544 71.396 106.988 71.066 107.504 70.838C108.032 70.61 108.614 70.496 109.25 70.496C109.874 70.496 110.438 70.61 110.942 70.838C111.458 71.066 111.896 71.384 112.256 71.792C112.616 72.188 112.892 72.662 113.084 73.214C113.276 73.766 113.372 74.372 113.372 75.032V75.716H106.496V76.148C106.496 76.556 106.562 76.934 106.694 77.282C106.826 77.63 107.012 77.93 107.252 78.182C107.504 78.434 107.804 78.632 108.152 78.776C108.512 78.908 108.908 78.974 109.34 78.974C109.964 78.974 110.504 78.83 110.96 78.542C111.416 78.254 111.764 77.858 112.004 77.354L113.066 78.074C112.79 78.698 112.328 79.214 111.68 79.622C111.044 80.018 110.264 80.216 109.34 80.216ZM109.25 71.684C108.854 71.684 108.488 71.756 108.152 71.9C107.816 72.044 107.522 72.242 107.27 72.494C107.03 72.746 106.838 73.046 106.694 73.394C106.562 73.73 106.496 74.102 106.496 74.51V74.636H111.824V74.438C111.824 74.03 111.758 73.658 111.626 73.322C111.506 72.986 111.332 72.698 111.104 72.458C110.888 72.206 110.618 72.014 110.294 71.882C109.982 71.75 109.634 71.684 109.25 71.684Z" fill="white"/>
</svg>
