<svg width="24" height="25" viewBox="0 0 24 25" fill="none" xmlns="http://www.w3.org/2000/svg">
<path fill-rule="evenodd" clip-rule="evenodd" d="M11 5.93848H12V11.0053L14.7394 12.4995L14.2606 13.3774L11 11.5989V5.93848Z" fill="white"/>
<path fill-rule="evenodd" clip-rule="evenodd" d="M11.5 3.43848C7.35786 3.43848 4 6.79634 4 10.9385C4 15.0806 7.35786 18.4385 11.5 18.4385V19.4385C6.80558 19.4385 3 15.6329 3 10.9385C3 6.24406 6.80558 2.43848 11.5 2.43848C16.1944 2.43848 20 6.24406 20 10.9385C20 11.2768 19.9802 11.6105 19.9418 11.9385H18.9339C18.9775 11.6113 19 11.2775 19 10.9385C19 6.79634 15.6421 3.43848 11.5 3.43848Z" fill="white"/>
<path d="M14.4492 22.751C14.1742 22.751 13.9388 22.6612 13.743 22.4817C13.5471 22.3022 13.4492 22.0864 13.4492 21.8343V17.251C13.4492 16.9989 13.5471 16.7831 13.743 16.6036C13.9388 16.4241 14.1742 16.3343 14.4492 16.3343H14.9492V15.4176C14.9492 14.7836 15.193 14.2432 15.6805 13.7963C16.168 13.3494 16.7576 13.126 17.4492 13.126C18.1409 13.126 18.7305 13.3494 19.218 13.7963C19.7055 14.2432 19.9492 14.7836 19.9492 15.4176V16.3343H20.4492C20.7242 16.3343 20.9596 16.4241 21.1555 16.6036C21.3513 16.7831 21.4492 16.9989 21.4492 17.251V21.8343C21.4492 22.0864 21.3513 22.3022 21.1555 22.4817C20.9596 22.6612 20.7242 22.751 20.4492 22.751H14.4492ZM14.4492 21.8343H20.4492V17.251H14.4492V21.8343ZM17.4492 20.4593C17.7242 20.4593 17.9596 20.3696 18.1555 20.19C18.3513 20.0105 18.4492 19.7947 18.4492 19.5426C18.4492 19.2906 18.3513 19.0748 18.1555 18.8952C17.9596 18.7157 17.7242 18.626 17.4492 18.626C17.1742 18.626 16.9388 18.7157 16.743 18.8952C16.5471 19.0748 16.4492 19.2906 16.4492 19.5426C16.4492 19.7947 16.5471 20.0105 16.743 20.19C16.9388 20.3696 17.1742 20.4593 17.4492 20.4593ZM15.9492 16.3343H18.9492V15.4176C18.9492 15.0357 18.8034 14.711 18.5117 14.4437C18.2201 14.1763 17.8659 14.0426 17.4492 14.0426C17.0326 14.0426 16.6784 14.1763 16.3867 14.4437C16.0951 14.711 15.9492 15.0357 15.9492 15.4176V16.3343Z" fill="white"/>
</svg>