<svg width="32" height="32" viewBox="0 0 32 32" fill="none" xmlns="http://www.w3.org/2000/svg">
<path d="M11.3327 23.3333H20.666V22H11.3327V23.3333ZM11.3327 18H20.666V16.6667H11.3327V18ZM8.81985 28C8.20618 28 7.69379 27.7944 7.28268 27.3833C6.87157 26.9722 6.66602 26.4598 6.66602 25.8462V6.15383C6.66602 5.54017 6.87157 5.02778 7.28268 4.61667C7.69379 4.20556 8.20618 4 8.81985 4H19.3327L25.3327 10V25.8462C25.3327 26.4598 25.1271 26.9722 24.716 27.3833C24.3049 27.7944 23.7925 28 23.1788 28H8.81985ZM18.666 10.6667V5.33333H8.81985C8.61474 5.33333 8.4267 5.4188 8.25575 5.58973C8.08482 5.76069 7.99935 5.94872 7.99935 6.15383V25.8462C7.99935 26.0513 8.08482 26.2393 8.25575 26.4103C8.4267 26.5812 8.61474 26.6667 8.81985 26.6667H23.1788C23.384 26.6667 23.572 26.5812 23.7429 26.4103C23.9139 26.2393 23.9993 26.0513 23.9993 25.8462V10.6667H18.666Z" fill="#C4CCDB"/>
</svg>
