<svg width="50" height="50" viewBox="0 0 50 50" fill="none" xmlns="http://www.w3.org/2000/svg">
<circle cx="25" cy="25" r="25" fill="#000723"/>
<path d="M8.37622 30.9873H13.5345V36.1456H8.37622V30.9873Z" fill="white"/>
<path fill-rule="evenodd" clip-rule="evenodd" d="M13.1046 31.4172H8.80608V35.7157H13.1046V31.4172ZM8.37622 30.9873V36.1456H13.5345V30.9873H8.37622Z" fill="#121212"/>
<path d="M41.6704 30.9873H36.5121V36.1456H41.6704V30.9873Z" fill="white"/>
<path fill-rule="evenodd" clip-rule="evenodd" d="M36.942 31.4172H41.2406V35.7157H36.942V31.4172ZM41.6704 30.9873V36.1456H36.5121V30.9873H41.6704Z" fill="#121212"/>
<path d="M25.259 30.9873H30.4173V36.1456H25.259V30.9873Z" fill="white"/>
<path fill-rule="evenodd" clip-rule="evenodd" d="M29.9874 31.4172H25.6889V35.7157H29.9874V31.4172ZM25.259 30.9873V36.1456H30.4173V30.9873H25.259Z" fill="#121212"/>
<path d="M25.259 25.3994H30.4173V30.5577H25.259V25.3994Z" fill="white"/>
<path fill-rule="evenodd" clip-rule="evenodd" d="M29.9874 25.8293H25.6889V30.1278H29.9874V25.8293ZM25.259 25.3994V30.5577H30.4173V25.3994H25.259Z" fill="#121212"/>
<path d="M27.6758 25.8125H30.4159V30.5581H27.6758V25.8125Z" fill="#121212"/>
<path fill-rule="evenodd" clip-rule="evenodd" d="M29.9861 26.2424H28.1056V30.1282H29.9861V26.2424ZM27.6758 25.8125V30.5581H30.4159V25.8125H27.6758Z" fill="#121212"/>
<path d="M25.259 19.8105H30.4173V24.9688H25.259V19.8105Z" fill="white"/>
<path fill-rule="evenodd" clip-rule="evenodd" d="M29.9874 20.2404H25.6889V24.539H29.9874V20.2404ZM25.259 19.8105V24.9688H30.4173V19.8105H25.259Z" fill="#121212"/>
<path d="M27.8927 16.8563L30.4173 14.2227V19.3809H25.259L27.8927 16.8563Z" fill="white"/>
<path fill-rule="evenodd" clip-rule="evenodd" d="M28.1967 17.1604L26.3286 18.9511H29.9874V15.2923L28.1967 17.1604ZM27.8927 16.8563L25.259 19.3809H30.4173V14.2227L27.8927 16.8563Z" fill="#121212"/>
<path d="M14.0012 30.9873H19.1595V36.1456H14.0012V30.9873Z" fill="white"/>
<path fill-rule="evenodd" clip-rule="evenodd" d="M18.7296 31.4172H14.4311V35.7157H18.7296V31.4172ZM14.0012 30.9873V36.1456H19.1595V30.9873H14.0012Z" fill="#121212"/>
<path d="M14.0012 25.3994H19.1595V30.5577H14.0012V25.3994Z" fill="white"/>
<path fill-rule="evenodd" clip-rule="evenodd" d="M18.7296 25.8293H14.4311V30.1278H18.7296V25.8293ZM14.0012 25.3994V30.5577H19.1595V25.3994H14.0012Z" fill="#121212"/>
<path d="M14.0012 19.8105H19.1595V24.9688H14.0012V19.8105Z" fill="white"/>
<path fill-rule="evenodd" clip-rule="evenodd" d="M18.7296 20.2404H14.4311V24.539H18.7296V20.2404ZM14.0012 19.8105V24.9688H19.1595V19.8105H14.0012Z" fill="#121212"/>
<path d="M14.0012 14.2227H19.1595V19.3809H14.0012V14.2227Z" fill="white"/>
<path fill-rule="evenodd" clip-rule="evenodd" d="M18.7296 14.6525H14.4311V18.9511H18.7296V14.6525ZM14.0012 14.2227V19.3809H19.1595V14.2227H14.0012Z" fill="#121212"/>
<path d="M30.884 30.9873H36.0423V36.1456H30.884V30.9873Z" fill="white"/>
<path fill-rule="evenodd" clip-rule="evenodd" d="M35.6124 31.4172H31.3139V35.7157H35.6124V31.4172ZM30.884 30.9873V36.1456H36.0423V30.9873H30.884Z" fill="#121212"/>
<path d="M30.884 25.3994H36.0423V30.5577H30.884V25.3994Z" fill="white"/>
<path fill-rule="evenodd" clip-rule="evenodd" d="M35.6124 25.8293H31.3139V30.1278H35.6124V25.8293ZM30.884 25.3994V30.5577H36.0423V25.3994H30.884Z" fill="#121212"/>
<path d="M30.884 19.8105H36.0423V24.9688H30.884V19.8105Z" fill="white"/>
<path fill-rule="evenodd" clip-rule="evenodd" d="M35.6124 20.2404H31.3139V24.539H35.6124V20.2404ZM30.884 19.8105V24.9688H36.0423V19.8105H30.884Z" fill="#121212"/>
<path d="M30.884 14.2227H36.0423V19.3809H30.884V14.2227Z" fill="white"/>
<path fill-rule="evenodd" clip-rule="evenodd" d="M35.6124 14.6525H31.3139V18.9511H35.6124V14.6525ZM30.884 14.2227V19.3809H36.0423V14.2227H30.884Z" fill="#121212"/>
<path d="M19.6289 30.9873H24.7872V36.1456H19.6289V30.9873Z" fill="white"/>
<path fill-rule="evenodd" clip-rule="evenodd" d="M24.3573 31.4172H20.0588V35.7157H24.3573V31.4172ZM19.6289 30.9873V36.1456H24.7872V30.9873H19.6289Z" fill="#121212"/>
<path d="M19.6289 25.3994H24.7872V30.5577H19.6289V25.3994Z" fill="white"/>
<path fill-rule="evenodd" clip-rule="evenodd" d="M24.3573 25.8293H20.0588V30.1278H24.3573V25.8293ZM19.6289 25.3994V30.5577H24.7872V25.3994H19.6289Z" fill="#121212"/>
<path d="M19.6289 19.8105H24.7872V24.9688H19.6289V19.8105Z" fill="white"/>
<path fill-rule="evenodd" clip-rule="evenodd" d="M24.3573 20.2404H20.0588V24.539H24.3573V20.2404ZM19.6289 19.8105V24.9688H24.7872V19.8105H19.6289Z" fill="#121212"/>
<path d="M19.6289 14.2227L22.1562 16.8536L24.7872 19.3809H19.6289V14.2227Z" fill="white"/>
<path fill-rule="evenodd" clip-rule="evenodd" d="M22.1562 16.8536L19.6289 14.2227V19.3809H24.7872L22.1562 16.8536ZM23.7192 18.9511L21.8522 17.1577L20.0588 15.2907V18.9511H23.7192Z" fill="#121212"/>
<path d="M22.0403 25.3994H24.532V30.5577H22.0403V25.3994Z" fill="#121212"/>
<path fill-rule="evenodd" clip-rule="evenodd" d="M24.1022 25.8293H22.4701V30.1278H24.1022V25.8293ZM22.0403 25.3994V30.5577H24.532V25.3994H22.0403Z" fill="#121212"/>
</svg>
