<svg width="129" height="200" viewBox="0 0 129 200" fill="none" xmlns="http://www.w3.org/2000/svg">
<g clip-path="url(#clip0_5969_5100)">
<path d="M48.544 164.106C48.4498 163.938 48.1148 163.696 48.0625 163.896L48.5126 164.454L48.544 164.106Z" fill="#99FCFD"/>
<path d="M46.7852 164.245C46.8701 164.509 47.0063 164.755 47.186 164.966C47.3656 165.177 47.5851 165.351 47.8318 165.477C47.4341 164.897 47.6853 165.034 47.2143 164.35C47.2143 164.15 47.5806 164.234 47.7585 164.424C47.6644 164.255 48.0516 164.297 47.7585 163.939C47.2038 163.781 46.984 164.013 47.1306 164.55C46.9736 164.529 46.8689 164.361 46.7852 164.245Z" fill="#99FCFD"/>
<path d="M41.1228 181.785L41.1752 181.648C41.1573 181.666 41.1434 181.688 41.1344 181.711C41.1254 181.735 41.1214 181.76 41.1228 181.785Z" fill="#99FCFD"/>
<path d="M46.7855 192.4C46.7558 192.376 46.7189 192.363 46.6808 192.363C46.6428 192.363 46.6059 192.376 46.5762 192.4C46.6704 192.442 46.7541 192.463 46.7855 192.4Z" fill="#99FCFD"/>
<path d="M47.8528 194.378L47.79 194.262C47.79 194.346 47.8005 194.399 47.8528 194.378Z" fill="#99FCFD"/>
<path d="M41.1229 181.785L40.9868 182.154C41.2171 182.143 41.1124 181.954 41.1229 181.785Z" fill="#99FCFD"/>
<path d="M46.6912 167.255C46.6925 167.173 46.6707 167.093 46.6284 167.023C46.6342 167.079 46.6342 167.136 46.6284 167.192L46.6912 167.255Z" fill="#99FCFD"/>
<path d="M40.1286 176.427V176.332C40.0419 176.287 39.9507 176.252 39.8564 176.227L40.1286 176.427Z" fill="#99FCFD"/>
<path d="M40.7041 172.246C40.7041 172.33 41.217 172.509 41.4577 172.615C41.2379 172.499 41.1437 172.404 41.1228 172.309C40.986 172.272 40.8456 172.251 40.7041 172.246V172.246Z" fill="#99FCFD"/>
<path d="M44.2107 166.699V166.562C44.2107 166.562 44.2002 166.657 44.2107 166.699Z" fill="#99FCFD"/>
<path d="M40.0448 179.469L39.8354 179.532C39.9081 179.522 39.9788 179.501 40.0448 179.469V179.469Z" fill="#99FCFD"/>
<path d="M52.5316 162.791L52.4688 162.707C52.4897 162.77 52.5002 162.802 52.5316 162.791Z" fill="#99FCFD"/>
<path d="M47.3818 163.085L47.4132 163.022L47.1934 162.77L47.3818 163.085Z" fill="#99FCFD"/>
<path d="M50.7207 197.261C50.5742 197.25 50.637 197.271 50.7207 197.261V197.261Z" fill="#99FCFD"/>
<path d="M83.282 189.441C82.6226 189.441 83.0831 188.536 82.2354 188.715C82.4761 188.789 82.6854 189.673 83.282 189.441Z" fill="#99FCFD"/>
<path d="M46.5762 167.297C46.5557 167.341 46.5312 167.383 46.5029 167.423C46.5244 167.41 46.5422 167.391 46.555 167.369C46.5677 167.347 46.575 167.322 46.5762 167.297Z" fill="#99FCFD"/>
<path d="M59.5024 200.043C59.4971 199.95 59.4795 199.858 59.45 199.77C59.4422 199.864 59.4603 199.959 59.5024 200.043V200.043Z" fill="#99FCFD"/>
<path d="M53.3164 197.262L53.4315 197.399C53.4103 197.341 53.3695 197.292 53.3164 197.262V197.262Z" fill="#99FCFD"/>
<path d="M63.0503 199.451C63.1445 199.503 63.1759 199.577 63.291 199.503V199.43C63.2178 199.503 63.155 199.545 63.0503 199.451Z" fill="#99FCFD"/>
<path d="M66.63 199.221C66.5987 199.185 66.5707 199.147 66.5463 199.105H66.4312L66.63 199.221Z" fill="#99FCFD"/>
<path d="M60.7581 159.664C60.6737 159.501 60.6104 159.328 60.5697 159.148C60.7058 159.57 60.2348 159.759 60.7581 159.664Z" fill="#99FCFD"/>
<path d="M46.4189 167.078C46.5341 167.173 46.5759 167.236 46.5759 167.299C46.5806 167.264 46.5806 167.229 46.5759 167.194C46.5311 167.146 46.4779 167.107 46.4189 167.078V167.078Z" fill="#99FCFD"/>
<path d="M63.2075 194.78L63.6681 194.853C63.522 194.794 63.3646 194.769 63.2075 194.78Z" fill="#99FCFD"/>
<path d="M79.1691 168.309H79.0435C79.0435 168.309 79.0958 168.319 79.1691 168.309Z" fill="#99FCFD"/>
<path d="M65.0181 194.703C65.0854 194.85 65.1857 194.98 65.3111 195.082C65.3219 195.03 65.3219 194.976 65.3111 194.924L65.0181 194.703Z" fill="#99FCFD"/>
<path d="M57.8277 161.088C58.2359 160.982 57.8277 160.298 57.8277 159.835C58.3092 159.519 58.2045 160.351 58.4662 160.698C58.7383 160.435 58.843 159.645 59.0942 159.645C59.0942 159.772 59.1988 159.803 59.1674 159.972C59.4081 159.266 60.2141 159.793 60.5071 158.919C60.5437 158.978 60.5718 159.042 60.5909 159.108C60.4893 158.766 60.4295 158.412 60.4129 158.055C60.6223 158.055 60.7688 157.519 60.8944 158.055C60.7583 158.055 60.7688 158.266 60.7165 158.424L60.9258 158.182C61.177 158.887 60.6432 158.466 60.6955 159.003C61.0828 158.708 61.5643 158.077 61.9097 158.298C61.9934 159.014 61.1456 158.54 61.6166 159.171C61.4387 159.087 61.2712 158.993 61.1037 158.929C61.5538 159.982 60.8002 158.929 61.2293 160.045C61.8468 160.214 61.9096 159.666 62.5376 159.866C62.6842 159.466 62.5376 159.277 62.6423 158.877C63.6157 158.14 63.2912 160.709 63.9925 159.782C64.2018 159.319 64.3588 158.424 64.8089 158.94L64.5577 159.73C65.1543 159.856 65.0496 158.624 65.6043 159.266C65.4369 159.551 65.081 159.445 65.1543 159.551C65.4787 160.256 65.5206 159.15 65.8555 159.203V159.93C66.6012 159.783 67.3571 159.695 68.1163 159.666C68.0221 159.856 67.8337 160.045 67.9488 160.298C68.4452 160.262 68.9372 160.412 69.3304 160.719C69.7546 161.007 70.1294 161.363 70.4399 161.772L70.9946 161.351C71.0679 161.351 70.9946 161.667 70.8899 161.74C71.0993 162.098 71.0679 161.393 71.3295 161.246C71.5284 161.246 71.4133 161.677 71.2144 161.793C71.6648 161.682 72.1351 161.682 72.5855 161.793C72.8086 161.815 73.0201 161.904 73.192 162.048C73.3638 162.193 73.4881 162.387 73.5484 162.604L73.3391 162.688C73.6217 163.183 74.5114 161.951 74.6056 162.688H74.459C74.8847 163.065 75.3321 163.417 75.7987 163.741C76.0298 163.898 76.2186 164.109 76.3482 164.357C76.4779 164.605 76.5445 164.882 76.5419 165.162C77.285 164.636 77.0547 166.215 77.9758 165.394C77.9758 166.299 77.6722 166.31 77.9758 167.226C78.07 167.436 78.7817 167.015 79.0224 167.173L78.5096 167.573L79.2946 167.489L78.7922 168.11L79.0852 168.237C79.0878 168.145 79.1131 168.056 79.1588 167.977C79.2045 167.898 79.2691 167.831 79.3469 167.784C79.8702 167.963 79.5458 168.921 79.2736 169.089L80.2575 169.658C80.0272 169.763 79.8597 169.658 79.6504 169.658C80.4877 169.784 79.1271 170.069 79.8598 170.195C79.9644 170.069 80.2156 170.037 80.3307 169.995C80.2456 170.2 80.2313 170.427 80.2901 170.641C80.349 170.855 80.4775 171.043 80.6552 171.174L80.2156 171.279C80.333 171.647 80.4909 172 80.6866 172.332C80.9082 172.654 81.0777 173.01 81.189 173.385C81.3146 173.059 82.0682 172.89 82.2357 173.111L81.6077 173.396C82.0473 173.396 81.7856 173.069 82.3717 173.248C82.3717 173.585 81.6705 173.648 81.4088 173.543L81.7333 173.848C81.5416 173.862 81.3492 173.862 81.1576 173.848C81.5972 173.901 80.6657 174.585 81.4088 174.638L81.2099 174.701C81.2937 175.47 81.6495 175.754 81.6914 176.428C82.2775 176.428 82.1624 176.659 82.6438 176.849C82.5388 177.118 82.42 177.382 82.288 177.639C82.1264 177.886 82.0358 178.174 82.0263 178.47C82.288 178.902 82.5078 178.628 82.8427 178.849C82.3089 178.849 82.3194 179.428 81.9635 179.081C81.9307 179.715 82.0123 180.35 82.2043 180.955C82.4345 180.955 82.5496 180.818 82.7171 180.955C82.8846 181.092 82.424 181.292 82.1833 181.208V181.145C82.445 181.745 81.8798 182.197 81.3983 182.65C80.9169 183.103 80.3517 183.408 80.7389 184.008V183.945C80.8017 184.282 80.8855 184.629 80.9273 184.998C80.6552 185.303 80.6866 184.608 80.247 184.724C80.5819 185.935 79.4725 185.935 79.5667 186.83C78.7294 186.651 78.4677 187.083 78.2479 187.588C78.0281 188.093 77.7664 188.641 77.128 188.641L77.4524 188.841C77.599 189.23 77.128 188.894 76.9605 188.957C77.2013 189.125 77.3583 188.957 77.4315 189.23C77.3367 189.435 77.221 189.629 77.0861 189.81L76.9396 190.02C76.9396 190.02 76.8663 190.02 76.7931 190.115C76.4131 190.364 76.0141 190.582 75.5999 190.768C74.7626 191.168 73.7892 191.305 73.0042 191.652C72.418 191.852 73.6322 193.516 72.4808 193.115L72.3657 192.389C72.1919 192.7 71.9526 192.97 71.6645 193.179C71.3763 193.338 71.0752 193.472 70.7643 193.579C70.4574 193.688 70.1569 193.814 69.8642 193.958C69.5489 194.082 69.2635 194.272 69.0269 194.516C69.0269 194.337 69.0269 194.137 69.1106 194.105C68.7129 193.705 68.1791 194.368 68.2628 194.779C68.064 194.779 68.1268 194.432 67.9593 194.253C67.7918 194.074 67.4569 195.011 67.2057 194.547C67.2057 194.474 67.2057 194.379 67.2894 194.326C67.1743 194.6 66.494 194.432 66.7557 194.968C66.2533 194.811 65.8974 195.348 65.4683 195.063C65.2903 195.737 64.6414 194.832 64.6309 195.769C64.6309 194.821 63.7622 195.011 63.4587 195.463C63.5529 195.169 63.197 195.169 63.3122 194.768C63.2254 194.762 63.1383 194.776 63.0576 194.809C62.9769 194.842 62.9046 194.892 62.8462 194.957C62.7878 195.022 62.7447 195.099 62.7203 195.183C62.6959 195.267 62.6907 195.356 62.7051 195.442C62.1504 194.263 61.3445 196.264 61.1351 194.779C60.151 195.128 59.1115 195.292 58.0684 195.263C58.3406 194.347 59.1151 195.432 59.2825 194.453C58.3824 194.6 57.6184 195.316 56.8438 194.758C56.6764 194.558 57.1055 194.421 57.2206 194.284C56.7872 194.297 56.357 194.207 55.9647 194.021C55.595 193.804 55.1658 193.711 54.7401 193.758C54.8072 193.67 54.9041 193.61 55.0122 193.589C54.8552 193.589 54.7401 193.316 54.5621 193.716H54.761C54.761 194.379 53.5992 194.632 53.4318 194.884C54.2272 193.926 52.8561 194.21 53.9656 193.042C53.8629 193.068 53.7682 193.119 53.6898 193.191C53.6113 193.262 53.5515 193.352 53.5155 193.452C53.4108 193.294 53.4527 193.126 53.7458 192.915C53.1492 192.852 53.0968 193.347 52.6468 193.084C52.7514 192.905 52.8875 192.884 53.055 192.705C52.6154 192.936 52.1862 193.115 51.9141 192.705C52.0083 192.61 52.0606 192.442 52.1653 192.515C51.5164 192.168 50.4593 192.684 50.072 191.82C50.8361 191.273 50.072 191.41 50.5116 190.768L50.0197 190.673L49.9045 191.073C49.6115 190.82 48.994 190.989 48.9207 190.568H49.3498L48.7218 190.167L48.816 190.673C48.2404 190.673 48.1566 191.42 47.9159 190.883C48.0624 190.883 47.6124 190.599 47.8217 190.104C47.5077 190.104 47.1728 190.104 47.1204 189.788C47.2565 189.567 47.8112 189.262 47.9054 189.115C47.2879 189.399 47.1518 188.557 46.4715 188.778C46.6819 188.704 46.872 188.581 47.0262 188.42L46.5134 188.609C46.5134 188.357 46.5866 188.283 46.8692 188.114C46.618 187.609 46.1785 188.851 46.1261 188.062C46.1889 188.062 46.2413 188.062 46.3668 188.062C46.1471 187.42 45.3202 187.188 45.3202 186.525C45.9063 185.967 45.7598 186.872 46.2203 186.356C45.6447 185.735 44.5457 185.251 44.3468 184.398V184.577C43.3002 184.914 44.6085 183.777 43.9805 183.577C44.0956 183.65 44.6085 183.492 44.4829 183.503C44.4829 182.913 43.813 182.524 43.2792 181.745H43.5828C43.7607 181.355 43.4886 180.86 43.5828 180.471C43.2897 180.471 43.3106 180.197 42.9129 180.397C43.656 179.692 43.3106 179.239 43.0594 178.723C42.8082 178.207 42.4733 177.67 43.1641 177.196C43.1641 177.312 43.4048 177.481 43.4048 177.386L43.1955 176.544C42.7036 176.544 42.892 176.628 42.5047 176.796C42.3777 176.748 42.2664 176.666 42.1832 176.558C42.1001 176.45 42.0483 176.321 42.0337 176.186C42.3268 176.607 42.8082 176.186 43.0804 176.091C42.9258 176.084 42.772 176.066 42.6198 176.038C43.5095 175.67 41.6464 175.859 42.2849 175.291L42.5361 175.354C42.4419 175.101 42.1488 174.838 42.2744 174.585C42.8396 174.585 42.4838 174.88 42.9338 174.964C42.9338 174.627 42.0128 174.08 42.6198 173.911C42.7454 174.09 42.714 174.312 42.8396 174.48C43.5409 174.259 43.3839 174.196 43.5304 173.964C43.6581 173.789 43.798 173.624 43.9491 173.469L43.7398 173.575C42.4419 172.795 43.7398 172.659 42.9757 171.795C43.677 172.637 43.4467 172.048 44.0223 172.29C44.2212 172.195 44.4724 172.048 44.6294 172.164C44.2003 171.732 45.1632 171.89 44.6294 171.269C44.8178 171.332 44.755 171.006 45.2051 171.269C45.2051 170.879 44.8492 171.206 44.6189 171.09C44.1898 170.29 45.8435 170.237 45.3725 169.142C45.3725 168.352 44.7864 167.889 44.8387 167.121C45.2469 167.121 45.383 167.657 45.383 167.657C45.5589 167.622 45.7137 167.518 45.8136 167.368C45.9136 167.218 45.9507 167.035 45.9168 166.857C46.0319 167.005 46.1889 167.026 46.4401 167.068C46.5448 166.815 45.9168 166.51 46.3668 166.384C46.5636 166.592 46.7422 166.818 46.9006 167.057C46.9006 166.699 46.7646 166.226 46.796 165.836C47.1309 165.973 47.1309 166.32 47.2565 166.541C47.2565 166.141 47.5496 165.604 47.1728 165.162L46.8588 165.236C46.9216 165.11 47.2879 165.468 47.3088 165.615C47.4658 166.12 46.8692 165.847 46.7018 165.752C46.6966 165.661 46.6966 165.569 46.7018 165.478C45.5714 164.973 46.325 166.394 46.011 166.742L45.3935 166.089L45.7284 166.899C45.4877 166.899 45.0271 166.668 45.0585 166.394C44.4933 166.457 45.1423 166.815 44.5771 166.826C44.5486 166.827 44.5206 166.818 44.4977 166.801C44.4749 166.783 44.4586 166.759 44.4515 166.731V167.163C44.3259 167.005 43.8863 166.889 44.1165 166.773C43.363 167.078 44.2107 167.994 43.5095 167.889V167.815C43.3734 168.721 44.0328 168.194 44.4096 169.089C43.8758 168.984 43.363 168.879 42.7873 168.795L43.3316 169.142C43.3127 169.174 43.2871 169.202 43.2565 169.224C43.226 169.246 43.1912 169.26 43.1546 169.267C43.1179 169.274 43.0801 169.273 43.0439 169.264C43.0076 169.256 42.9737 169.239 42.9443 169.216C43.2164 169.711 43.2164 169.279 43.52 169.626C42.8292 169.795 43.342 170.816 42.3477 170.542C42.7454 170.858 42.8606 170.29 42.9966 170.837C41.95 170.584 42.9966 171.385 42.4 171.595C41.8976 171.3 42.2849 171.027 41.6883 171.258C42.5361 171.785 41.2696 171.953 41.3534 172.311C42.0965 172.532 41.4162 173.101 41.5941 173.722C41.3534 173.638 40.9975 174.701 40.6312 175.206H40.5161C41.2592 175.406 41.0813 175.933 41.2173 176.344C41.0601 176.354 40.9028 176.326 40.7588 176.262C40.6147 176.198 40.4884 176.099 40.3905 175.975V176.365C40.4967 176.402 40.5918 176.467 40.6668 176.551C40.7418 176.636 40.7944 176.738 40.8196 176.849L40.2544 176.723C40.2544 177.249 40.9033 177.775 40.5475 178.428C41.0917 178.428 42.0232 177.881 42.4 178.502C42.1174 178.502 41.6255 178.597 41.4999 178.428C41.4999 178.481 41.7406 178.618 41.6255 178.744L41.1336 178.502C40.9243 178.807 41.5418 178.628 41.5104 178.86C41.0917 178.86 41.2173 179.049 40.8929 179.049C40.8929 178.986 41.0499 178.828 40.8929 178.744C40.8541 178.905 40.7818 179.056 40.6808 179.186C40.5797 179.317 40.4522 179.425 40.3067 179.502C40.537 179.502 40.8615 179.449 40.9347 179.639C41.0394 180.134 40.4637 179.871 40.2963 180.197C40.5998 180.281 40.3591 180.65 40.9661 180.565C40.9661 180.713 40.7045 180.787 40.5475 180.871C40.8301 181.102 40.8615 182.092 41.4476 181.65V181.576C42.243 182.24 41.5104 183.377 42.086 184.093L41.8976 184.166C42.2849 184.556 42.4 185.219 42.9443 185.303C42.9443 185.44 42.7454 185.777 42.4942 185.83C42.8082 186.114 43.028 186.04 42.9652 186.693C42.4733 186.514 42.7454 186.967 42.557 186.461C42.6198 186.998 42.3791 187.272 43.1536 187.462C43.0646 187.476 42.9826 187.519 42.9198 187.584C42.857 187.649 42.8167 187.733 42.805 187.823C42.7932 187.912 42.8106 188.004 42.8546 188.083C42.8985 188.162 42.9667 188.225 43.049 188.262L43.185 187.756C43.359 187.942 43.488 188.165 43.5618 188.409L42.9024 188.672C42.8082 189.378 43.4153 189.578 43.9491 189.725C44.4829 189.873 44.8387 190.115 44.5457 190.873C45.1004 190.789 44.4515 190.21 45.0585 190.041C45.2679 190.473 44.8597 191.494 44.9539 191.62C45.1318 192.389 46.1157 191.42 46.3983 192.084C46.5134 191.852 46.932 191.336 47.4449 191.505C47.7066 191.884 47.1309 192.652 46.775 192.557C46.7577 192.545 46.7437 192.528 46.734 192.509C46.7243 192.49 46.7192 192.468 46.7192 192.447C46.7192 192.425 46.7243 192.404 46.734 192.385C46.7437 192.366 46.7577 192.349 46.775 192.336C46.6076 192.336 46.3773 192.231 46.325 192.557L46.5448 192.421C46.5448 192.768 47.0472 193.221 46.6599 193.41C47.089 193.494 47.0472 193.221 46.9425 192.936C47.1414 193.642 47.6333 193.61 47.9892 194.189C47.9892 194.021 48.1043 193.737 48.188 193.8C48.7218 194.632 48.7951 193.684 49.3393 193.989C49.3393 194.505 48.6904 194.653 49.4021 194.758C49.5696 195.19 49.0881 195.348 48.837 195.421C49.601 195.369 49.5801 196.306 49.8208 196.579H49.444C49.6228 196.593 49.7938 196.659 49.9359 196.769L50.0511 196.242C50.1557 196.421 50.2918 196.516 50.1767 196.685C50.5011 196.516 50.4907 195.906 51.0349 195.716C51.1082 196.053 51.799 195.832 51.5478 196.453C50.9931 195.884 51.2861 197.074 50.6686 196.843C50.7498 196.846 50.8289 196.87 50.8984 196.912C50.968 196.955 51.0257 197.014 51.0663 197.085C51.0663 197.169 50.9826 197.19 50.9198 197.201C51.2861 198.085 51.5792 196.716 52.2281 197.095C51.9769 197.38 52.0606 197.811 52.2281 197.801C51.956 197.643 52.3746 197.19 52.7514 197.043C53.0654 197.506 53.3166 197.043 53.526 197.201L53.3271 196.958C53.5678 196.653 53.7667 196.8 54.1121 196.822C54.0179 197.106 53.7562 196.885 53.8086 197.053C54.4051 196.59 54.29 198.043 54.9599 197.79C55.0959 198.106 54.7296 198.453 54.8761 198.685C55.5879 198.432 55.3157 199.39 56.0379 199.222C56.0379 198.675 55.9542 198.79 56.5089 198.464H55.4623L56.2891 197.98C56.017 197.885 55.5983 198.074 55.4623 197.98C55.8809 197.695 55.8077 197.801 55.8077 197.358C55.9542 198.201 56.6868 197.222 56.9799 197.822L56.3938 198.99C56.9694 199.696 57.8068 198.727 58.6441 199.201L58.3929 198.938C58.6127 198.474 58.9686 198.938 59.293 198.822C59.2411 199.119 59.2968 199.426 59.45 199.685C59.45 199.38 60.1408 199.822 60.3187 199.022C60.4339 199.222 60.549 199.412 60.6746 199.601C61.4177 199.885 61.6271 198.485 62.3074 198.685C62.0771 199.117 62.3911 199.433 61.8887 199.738C62.1294 199.738 62.3492 199.854 62.3597 199.559C62.4958 199.843 63.04 199.001 63.2598 199.401C63.3645 199.211 63.3854 198.78 63.6576 198.811C63.6691 198.878 63.6691 198.945 63.6576 199.011C63.6576 198.811 64.0553 198.727 63.825 198.274C64.5995 199.601 65.7823 198.032 66.5463 199.075C67.0487 198.885 67.593 198.59 68.0849 198.474C68.0849 198.601 68.0849 198.685 68.0221 198.653C68.7548 198.896 68.1582 197.432 68.9432 197.674C69.477 198.211 68.671 198.138 68.9432 198.317C69.3932 199.601 69.7491 197.874 70.4503 198.496L70.3561 198.601C70.8795 198.927 71.1097 197.853 71.7063 197.685C71.7128 197.757 71.7381 197.826 71.7796 197.885C71.9756 197.181 72.4084 196.567 73.0042 196.148C73.067 196.716 72.8786 196.506 73.2135 196.958C73.4124 196.769 72.7739 196.211 73.2135 195.832C73.4856 196.011 73.9357 196.063 74.2602 196.558L73.8206 196.822C74.3858 197.369 74.3962 196.485 74.6893 196.474L74.8149 196.779C75.4638 196.306 75.0661 195.621 75.7778 195.211L75.5685 195.042C75.5057 194.105 76.1337 195.232 76.1755 194.474L76.7407 195.084C76.9399 194.507 77.1777 193.944 77.4524 193.4C77.5085 194.022 77.4077 194.648 77.1594 195.221C77.4211 195.074 77.9653 194.589 77.8292 194.168C77.8292 194.305 77.8292 194.558 77.6199 194.537C77.5451 194.241 77.5534 193.929 77.644 193.637C77.7345 193.346 77.9037 193.085 78.1328 192.884C78.6038 193.537 78.9492 193.4 79.3678 193.126C79.5019 193.052 79.6252 192.96 79.7342 192.852C79.8345 192.762 79.9432 192.68 80.0586 192.61C80.1746 192.554 80.3015 192.525 80.4302 192.525C80.5588 192.525 80.6858 192.554 80.8017 192.61C80.8657 192.341 80.9819 192.087 81.1435 191.863C81.3052 191.639 81.5091 191.449 81.7437 191.305C82.2259 190.95 82.6407 190.512 82.9683 190.01C81.6914 189.673 83.1462 189.683 82.0368 189.041C82.131 188.767 82.2043 188.693 82.288 188.715C82.6421 188.619 82.9914 188.507 83.3346 188.378C83.7638 188.378 83.4498 188.767 83.701 188.894C84.1092 188.367 84.308 188.894 84.8104 188.704C84.3708 188.557 84.3499 188.188 84.6848 187.935L83.9208 188.114C83.7428 186.998 85.2605 187.935 85.0721 186.788C85.1558 186.935 85.2396 187.083 85.3128 187.23C85.3128 186.704 86.035 185.556 85.25 184.766C85.4175 184.766 85.7943 184.766 85.7943 184.987C86.0208 184.398 86.0788 183.756 85.9617 183.134C85.9088 182.861 85.9121 182.58 85.9715 182.309C86.031 182.037 86.1452 181.781 86.3071 181.555L86.5897 181.703C86.5897 181.471 86.0873 181.229 86.4432 181.018C86.5688 181.018 86.7363 181.155 86.7677 181.018C86.7991 180.881 86.3281 180.376 86.5583 180.123L86.8619 180.408C87.4375 179.355 86.1606 178.586 86.0141 177.712C86.9456 177.712 87.2073 176.838 87.3329 176.365H87.4689C87.4823 176.047 87.4397 175.73 87.3433 175.428C87.2275 175.144 87.0838 174.872 86.9142 174.617C86.5688 174.111 86.2339 173.638 85.8675 173.111C86.0351 172.844 86.1409 172.543 86.1771 172.23C86.2134 171.916 86.1791 171.599 86.0769 171.3C85.8267 170.644 85.6853 169.95 85.6582 169.247C85.564 169.489 84.9988 169.489 84.8209 169.342C84.8209 169.016 83.9103 168.931 84.6848 168.605V168.71C85.3442 168.152 84.8837 167.71 84.6848 167.3L83.6382 167.763C84.0464 166.878 83.5021 166.278 82.9997 165.783C82.4973 165.289 81.9531 164.941 82.3089 164.236C81.9321 164.173 81.7228 163.899 81.3251 163.878L81.7856 163.499C81.4614 162.845 80.9835 162.282 80.3935 161.856L80.8436 161.698C80.4563 161.277 79.1376 162.446 78.7503 162.141L79.2422 161.382C78.5828 160.751 78.2584 159.572 77.0547 159.624C77.1385 159.529 77.3164 159.329 77.4629 159.403C77.128 159.119 76.3535 157.919 75.8301 159.035C76.2593 158.361 75.0661 158.424 74.459 158.519L74.8149 158.045C74.0718 158.487 73.9671 158.666 73.3705 158.571C73.2868 158.434 73.4856 158.087 73.5798 158.308C73.3182 157.813 73.0146 158.624 72.6588 158.119L73.0146 157.866C72.596 157.634 72.5436 157.866 72.1354 158.119C71.7796 158.213 71.4028 157.624 71.5284 157.066C71.3505 157.329 70.9632 157.634 70.7539 157.413C70.7685 157.343 70.7988 157.278 70.8423 157.221C70.8858 157.165 70.9414 157.119 71.0051 157.087C70.3875 156.445 69.6863 157.34 69.3618 156.613C69.3974 156.496 69.3974 156.372 69.3618 156.255C69.7123 156.355 70.0471 156.503 70.3561 156.697C70.5445 156.192 70.0735 155.918 70.712 155.36C70.1677 155.592 69.2467 156.202 68.828 155.844C68.8163 155.778 68.8163 155.711 68.828 155.644H68.8908C68.8423 155.609 68.7836 155.589 68.7234 155.589C68.6631 155.589 68.6044 155.609 68.5559 155.644C68.4603 155.529 68.3381 155.439 68.2 155.381C68.2 154.939 67.6662 154.992 67.415 154.918C67.3104 155.497 67.0069 155.35 67.2162 155.887C67.2162 155.834 67.279 155.813 67.4464 155.834C67.4646 155.842 67.4842 155.846 67.504 155.846C67.5238 155.846 67.5434 155.842 67.5616 155.834V155.887L68.1791 156.002C67.907 156.245 67.6558 156.434 67.4569 156.002L66.9231 156.866C66.7661 156.002 66.18 155.455 66.1591 154.928C65.3322 155.097 64.2646 154.928 63.7204 155.981C63.5006 156.108 63.4901 155.644 63.4168 155.465C63.5424 155.371 63.6994 155.392 63.7727 155.244C63.3226 155.465 62.4644 155.244 62.3597 156.087C61.8155 155.739 62.6632 155.371 61.9097 155.508L62.0143 155.265C61.8757 155.137 61.7054 155.049 61.5212 155.01C61.337 154.971 61.1458 154.983 60.9677 155.044C60.6325 155.213 60.3282 155.437 60.0675 155.708C59.4814 156.224 58.9476 156.666 57.9742 156.076C58.1103 156.15 58.1731 156.181 58.215 156.308C57.7398 156.235 57.2549 156.264 56.7915 156.392C56.3365 156.544 55.8924 156.727 55.4623 156.939C54.6175 157.429 53.6519 157.666 52.6782 157.624C52.092 157.624 52.27 158.129 52.1653 158.613L51.778 158.098L51.642 159.014C51.4431 159.424 50.9721 159.245 50.4802 159.14C49.9883 159.035 49.5382 159.056 49.4335 159.751L49.7789 160.035C49.444 160.172 49.0253 160.867 48.7846 160.435C48.7846 160.519 48.9521 160.856 48.7114 160.751L48.502 160.498C48.3869 160.824 48.2927 161.161 48.1985 161.488C47.5496 161.73 47.4554 160.435 46.6494 160.982C46.4401 161.33 46.5029 162.383 46.7541 162.456C46.8643 162.406 46.988 162.395 47.1055 162.424C47.223 162.452 47.3277 162.519 47.403 162.614L47.2774 162.951C47.8845 163.709 48.4078 164.573 49.3707 164.636V163.867L49.7999 164.13L49.5068 164.415C49.9673 164.604 49.8208 164.215 49.7789 163.899C49.9114 164.038 50.083 164.134 50.2709 164.173L50.2395 163.193C50.5221 163.467 50.543 163.93 50.9198 163.899C50.8256 163.404 50.229 163.351 50.3441 162.846C50.8151 163.067 50.9617 163.393 50.9721 162.93C51.0423 162.991 51.097 163.067 51.1316 163.153C51.1662 163.239 51.1797 163.333 51.171 163.425C51.171 163.046 51.621 162.962 51.4327 162.467C51.935 162.783 52.0397 161.867 52.4793 162.667C52.4043 162.329 52.4605 161.975 52.6363 161.677C52.8456 162.835 53.4108 161.33 53.8818 162.425C53.8256 162.258 53.8248 162.078 53.8795 161.91C53.9343 161.743 54.0416 161.599 54.1853 161.498C54.4261 161.309 54.7296 161.203 54.8552 160.835C54.8552 160.919 54.8552 161.088 54.8552 161.067C55.1587 161.067 55.3576 161.267 55.5983 161.361C55.3157 160.593 55.6716 160.224 55.7344 159.656C56.3624 160.288 55.86 160.635 56.2368 161.319C55.9751 160.677 56.6031 160.498 56.2996 160.003C56.7287 160.393 56.6136 160.161 56.959 160.772C56.6868 159.719 57.1474 160.53 57.1788 159.845C57.7126 160.214 57.5451 160.751 57.8696 160.309C58.0894 160.614 57.8277 161.088 57.8277 161.088ZM68.1372 159.498H67.9174H68.1372ZM69.0164 159.761C68.8982 159.692 68.7715 159.639 68.6396 159.603C68.6396 159.403 68.7652 159.214 68.8594 159.256C68.7652 159.34 68.9432 159.529 69.0164 159.74V159.761ZM68.0744 155.234C68.2628 155.234 68.2942 155.318 68.2838 155.444H67.9698V155.518C67.9755 155.414 67.9967 155.311 68.0326 155.213L68.0744 155.234Z" fill="#99FCFD"/>
<path d="M67.6035 155.886C67.6035 155.886 67.6035 155.886 67.5303 155.886L67.5931 156.033L67.6977 155.875L67.6035 155.886Z" fill="#99FCFD"/>
<path d="M41.186 181.618C41.1915 181.602 41.2011 181.587 41.214 181.576C41.2269 181.565 41.2426 181.558 41.2593 181.555L41.186 181.618Z" fill="#99FCFD"/>
<path d="M78.3527 167.7L78.4678 167.605L78.3213 167.627L78.3527 167.7Z" fill="#99FCFD"/>
<path d="M42.8394 176.088C42.8954 176.085 42.9496 176.067 42.9964 176.035C42.9409 176.041 42.8873 176.059 42.8394 176.088V176.088Z" fill="#99FCFD"/>
<path d="M43.2896 173.921L43.5512 173.668C43.4518 173.738 43.3636 173.824 43.2896 173.921V173.921Z" fill="#99FCFD"/>
<path d="M44.012 172.375L43.7817 172.27L44.012 172.375Z" fill="#99FCFD"/>
<path d="M54.855 193.61C54.8645 193.615 54.8754 193.618 54.8864 193.618C54.8974 193.618 54.9082 193.615 54.9178 193.61C55.0957 193.568 54.991 193.568 54.855 193.61Z" fill="#99FCFD"/>
<path d="M47.6333 190.082C47.7587 190.071 47.8847 190.071 48.0101 190.082C47.9473 189.956 47.8845 189.861 47.6333 190.082Z" fill="#99FCFD"/>
<path d="M63.1553 194.777V194.788H63.2076L63.1553 194.777Z" fill="#99FCFD"/>
<path d="M48.2714 190.357C48.2688 190.288 48.2404 190.223 48.1919 190.174C48.1434 190.125 48.0783 190.096 48.0098 190.094C48.0621 190.199 48.1458 190.336 48.2714 190.357Z" fill="#99FCFD"/>
<path d="M47.5913 166.046L47.6541 165.993C47.6282 165.977 47.6066 165.956 47.5913 165.93V166.046Z" fill="#99FCFD"/>
<path d="M47.5911 165.928V165.812C47.5911 165.812 47.5388 165.876 47.5911 165.928Z" fill="#99FCFD"/>
<path d="M47.5913 165.57V165.812C47.6332 165.76 47.696 165.707 47.5913 165.57Z" fill="#99FCFD"/>
<path d="M46.105 167.762L46.2725 167.888C46.2236 167.837 46.167 167.795 46.105 167.762Z" fill="#99FCFD"/>
<path d="M45.8118 168.371C45.927 168.255 46.398 168.245 46.4084 167.992L46.2724 167.887C46.4817 168.139 45.5606 168.055 45.8118 168.371Z" fill="#99FCFD"/>
<path d="M42.1486 169.93L42.5464 169.404C42.2952 169.404 41.9602 169.404 42.023 169.141C41.081 169.635 42.5464 169.183 42.1486 169.93Z" fill="#99FCFD"/>
<path d="M41.165 171.708C41.165 171.339 40.851 171.613 40.7358 171.561C40.8719 171.845 40.9033 171.908 41.165 171.708Z" fill="#99FCFD"/>
<path d="M42.2117 186.059L41.7197 186.248C41.8663 186.469 41.8663 186.164 42.2117 186.059Z" fill="#99FCFD"/>
<path d="M45.8851 186.988L46.0525 186.609L45.5815 186.778L45.8851 186.988Z" fill="#99FCFD"/>
<path d="M43.6871 190.494L43.5615 190.441L43.9907 190.694L43.6871 190.494Z" fill="#99FCFD"/>
<path d="M66.0544 199.809L65.8974 199.156C65.7299 199.293 65.7613 200.041 66.0544 199.809Z" fill="#99FCFD"/>
<path d="M75.8511 195.608C76.1232 195.829 76.4895 195.84 76.4686 195.461C76.2383 195.556 75.9034 195.471 75.8511 195.608Z" fill="#99FCFD"/>
<path d="M84.2031 166.932L84.5067 167.016L84.1299 166.742L84.2031 166.932Z" fill="#99FCFD"/>
<path d="M49.0669 122.721C48.9099 122.426 48.4913 122.552 48.5227 123.321L49.1821 123.9L49.0669 122.721Z" fill="#99FCFD"/>
<path d="M47.5181 127.754C47.8111 128.66 48.3763 129.713 49.0252 129.155C48.3868 128.249 48.6798 128.102 47.9263 127.049C47.9263 126.28 48.2089 125.733 48.46 125.87C48.2926 125.596 48.6694 124.701 48.2612 124.27C47.9656 124.806 47.7866 125.4 47.7361 126.012C47.6856 126.624 47.7647 127.239 47.9681 127.818C47.8111 128.102 47.6332 127.818 47.5181 127.754Z" fill="#99FCFD"/>
<path d="M91.0589 109.887L90.6821 110.182C90.8205 110.101 90.9472 110.002 91.0589 109.887Z" fill="#99FCFD"/>
<path d="M122.092 75.5826C121.956 75.9195 121.956 76.0879 121.998 76.1406C122.102 75.8037 122.176 75.5404 122.092 75.5826Z" fill="#99FCFD"/>
<path d="M125.693 68.2773C125.62 68.4458 125.578 68.5827 125.504 68.7301C125.622 68.6089 125.69 68.4469 125.693 68.2773V68.2773Z" fill="#99FCFD"/>
<path d="M91.0586 109.888L92.0424 109.151C91.9273 108.93 91.4773 109.499 91.0586 109.888Z" fill="#99FCFD"/>
<path d="M49.0569 136.167C48.9417 136.167 48.9417 136.062 48.8371 136.04C48.7324 136.019 48.8371 136.241 48.9313 136.272L49.0569 136.167Z" fill="#99FCFD"/>
<path d="M81.8901 127.059L81.7959 127.406C81.8591 127.53 81.9364 127.647 82.0262 127.753C81.9657 127.525 81.9203 127.293 81.8901 127.059V127.059Z" fill="#99FCFD"/>
<path d="M75.4846 139.609C75.8405 139.609 75.9556 139.041 76.0917 138.777C75.8999 139.009 75.6258 139.156 75.3276 139.188C75.3321 139.342 75.3873 139.49 75.4846 139.609V139.609Z" fill="#99FCFD"/>
<path d="M50.8044 138.566L50.3125 138.64C50.4486 138.619 50.6893 138.598 50.8044 138.566Z" fill="#99FCFD"/>
<path d="M86.1079 117.34C86.1896 117.366 86.2775 117.366 86.3591 117.34C86.3197 117.322 86.2768 117.313 86.2335 117.312C86.1902 117.313 86.1474 117.322 86.1079 117.34Z" fill="#99FCFD"/>
<path d="M55.2215 107C55.2215 107 55.1587 107 55.1378 107C55.1168 107 55.1587 107.095 55.2215 107Z" fill="#99FCFD"/>
<path d="M47.5286 122.616V122.363C47.4209 122.348 47.3117 122.348 47.2041 122.363L47.5286 122.616Z" fill="#99FCFD"/>
<path d="M128.833 53.4648V53.5385C128.874 53.9386 128.864 53.6965 128.833 53.4648Z" fill="#99FCFD"/>
<path d="M23.7487 10.7716C25.3187 10.3821 22.0008 12.7089 24.2616 11.9403C23.9476 11.8666 25.5489 10.0136 23.7487 10.7716Z" fill="#99FCFD"/>
<path d="M49.1929 136.239C49.308 136.239 49.4127 136.239 49.5173 136.239C49.4102 136.217 49.3 136.217 49.1929 136.239V136.239Z" fill="#99FCFD"/>
<path d="M24.2612 11.9397L24.4915 11.8555L24.2612 11.9397Z" fill="#99FCFD"/>
<path d="M118.052 20.7422C118.021 20.8879 118.021 21.0386 118.052 21.1844C118.104 21.1317 118.115 21.058 118.052 20.7422Z" fill="#99FCFD"/>
<path d="M127.085 44.6942V44.0625C127.067 44.2727 127.067 44.484 127.085 44.6942Z" fill="#99FCFD"/>
<path d="M108.014 11.833C107.823 11.5803 107.571 11.381 107.282 11.2539L107.355 11.3908C107.624 11.4455 107.861 11.6043 108.014 11.833V11.833Z" fill="#99FCFD"/>
<path d="M95.8105 5.35938C95.8105 5.42255 95.9466 5.47519 96.0199 5.54889L96.4385 5.67523C96.2292 5.56995 96.0303 5.4436 95.8105 5.35938Z" fill="#99FCFD"/>
<path d="M82.6856 77.5625C82.4276 77.6724 82.1494 77.7262 81.8692 77.7204C82.2879 77.8257 81.0842 79.4787 82.6856 77.5625Z" fill="#99FCFD"/>
<path d="M48.7425 136.501C48.8671 136.381 49.0175 136.291 49.1821 136.238H48.9309C48.8262 136.365 48.732 136.449 48.7425 136.501Z" fill="#99FCFD"/>
<path d="M104.833 15.2784L103.263 14.0781C103.764 14.506 104.288 14.9067 104.833 15.2784V15.2784Z" fill="#99FCFD"/>
<path d="M37.2294 50.8834V50.3359C37.1814 50.5152 37.1814 50.7041 37.2294 50.8834Z" fill="#99FCFD"/>
<path d="M98.0818 11.3198C97.8509 10.9909 97.5638 10.7057 97.234 10.4775C97.1441 10.4606 97.0519 10.4606 96.9619 10.4775L98.0818 11.3198Z" fill="#99FCFD"/>
<path d="M72.868 88.9661C74.3647 87.5869 73.0459 87.7553 73.0564 87.1341C74.6787 85.2916 74.2705 86.7656 75.1497 86.4814C76.1126 85.2811 76.4475 83.9229 77.243 83.1333C77.4 83.1333 77.5884 83.0385 77.5151 83.3439C78.2059 81.7435 80.8644 79.7957 81.4819 77.7848C81.5753 77.7357 81.6804 77.7138 81.7855 77.7216C81.5872 77.7316 81.3894 77.6949 81.2077 77.6144C81.026 77.534 80.8655 77.4121 80.7388 77.2584C81.3354 76.553 81.4401 75.6265 82.0471 75.6686C81.6913 76.1002 81.8169 76.2687 81.775 76.5845L82.2041 75.6686C83.3136 75.4264 81.5866 76.8899 81.9948 77.2163C82.4972 76.3845 82.9787 75.4475 83.4287 74.5736C83.7907 73.767 84.2475 73.0071 84.7894 72.31C85.5848 72.4679 83.031 75.279 84.6847 74.0261C84.1719 74.6052 83.6381 75.1842 83.1252 75.7212C85.0824 75.0158 82.2041 76.7741 84.1718 76.2266C86.15 73.8682 85.8884 73.247 87.6049 70.678C87.6049 69.8779 86.9873 70.5938 86.9664 69.8042C87.6886 67.6985 88.3271 67.1299 89.0597 66.6456C89.501 66.3709 89.858 65.9785 90.0908 65.512C90.3236 65.0454 90.4232 64.523 90.3785 64.0029C90.1796 63.0449 89.4051 62.5184 90.3785 60.4232C90.5983 60.7286 90.8181 61.0444 91.0065 61.3603C91.293 60.5716 91.293 59.7064 91.0065 58.9177C90.9183 58.6497 90.8793 58.3679 90.8914 58.0859C90.9043 57.5394 90.9924 56.9973 91.153 56.475C91.4251 57.0541 91.2054 58.8124 91.331 58.3807C92.1683 56.4435 91.017 56.9172 91.153 55.4011L91.8752 55.1169C91.9327 51.5958 91.218 48.1053 89.7819 44.8937C90.0436 44.9989 90.4622 45.5359 90.3785 44.6304C88.3728 40.1699 85.2583 36.3045 81.3354 33.407C80.7388 33.3017 80.1632 33.1543 79.5561 33.1017C79.2107 32.9332 79.0223 32.5437 79.4619 32.6174C77.9966 31.6698 79.2107 32.9332 78.4153 32.8069C77.5256 32.4384 77.3686 31.933 78.0175 32.0278C77.2744 31.8383 76.3638 31.6804 75.4009 31.4487L72.2191 30.9328C70.1258 30.638 68.0325 30.3643 66.5253 30.0063L67.1323 29.8484C64.6936 29.4904 64.432 31.0486 62.2131 30.5854L62.6317 30.4485C59.997 30.5672 57.3894 31.0344 54.876 31.8383C52.4164 32.649 50.1661 33.565 48.1774 34.2493C48.0518 34.7863 46.9424 35.4917 45.8748 36.1866C44.8072 36.8814 43.9594 37.7869 44.2839 38.3449C43.0488 39.2504 42.4837 39.4925 41.908 39.9558C41.5405 40.2465 41.191 40.5594 40.8613 40.8928C40.6069 41.1361 40.3692 41.3964 40.1496 41.6719L39.3018 42.8827C38.632 43.9356 39.2181 44.841 38.7994 46.1992L38.1714 46.0097C38.1514 46.7127 38.1794 47.4162 38.2552 48.1154L37.2085 48.9577C37.2085 49.4209 37.2085 49.8842 37.2085 50.3474C37.3237 49.8105 37.6586 49.2946 37.826 49.3683C37.8185 49.9347 37.7554 50.4989 37.6376 51.0529C37.6376 51.3161 37.512 51.653 37.4492 51.853L37.3865 51.9688C37.3564 52.0216 37.3145 52.0665 37.2641 52.1C37.2136 52.1336 37.1561 52.1548 37.0961 52.1619C37.0361 52.1691 36.9753 52.162 36.9184 52.1413C36.8616 52.1206 36.8104 52.0867 36.7689 52.0425C36.7734 52.0951 36.7734 52.1479 36.7689 52.2005L36.7061 52.2636C36.6497 52.3175 36.5863 52.3636 36.5177 52.4005C36.3084 52.4953 36.3607 52.59 35.3664 52.6742C35.3664 52.5479 35.6385 52.4637 35.9107 52.39L36.12 52.3268V52.2742C36.1537 52.2402 36.182 52.2011 36.2037 52.1583C36.1718 52.2274 36.121 52.2858 36.0572 52.3268C35.9215 52.3407 35.7847 52.3407 35.649 52.3268C35.5894 52.3229 35.5322 52.3021 35.484 52.2666C35.4358 52.2312 35.3986 52.1827 35.3769 52.1268C35.2931 51.9478 35.2303 51.7583 34.1314 52.0636C34.4244 52.211 33.9639 52.4531 33.9116 52.5795C32.1177 52.2106 30.2768 52.1324 28.4585 52.3479L28.8144 51.9057C25.4546 51.7898 21.7495 52.1162 17.992 52.1057C19.3317 52.3163 19.0386 53.0954 17.9187 53.1586L17.4791 52.4742C16.7674 52.8953 18.6304 52.7269 17.1756 53.2533C15.7731 53.1691 16.2336 52.4742 17.0395 52.2005L15.323 52.4426C15.2288 52.2426 15.6265 52.1268 15.7312 51.8741C15.0299 52.2952 12.7901 51.1792 11.7748 51.8741L11.6806 51.674C9.79667 51.674 8.43602 51.7267 7.15911 51.7898H6.67765C6.56978 51.7787 6.46106 51.7787 6.35318 51.7898H6.21712H5.86126C5.75444 51.9119 5.63113 52.0182 5.49493 52.1057C5.46788 52.1214 5.4372 52.1297 5.40596 52.1297C5.37473 52.1297 5.34405 52.1214 5.317 52.1057C5.20777 51.9491 5.06462 51.8195 4.89834 51.7267C4.89834 51.4003 5.01347 51.0844 5.08673 50.7896L5.23327 50.8318L5.317 50.4317L5.49493 49.5473C5.74613 48.3681 5.86126 47.1257 6.09152 45.8518C6.09152 44.0093 5.68333 45.2516 5.46353 44.3778C5.74613 44.3778 5.96592 43.6934 6.14385 43.2196C6.32178 42.7458 6.52065 42.4826 6.55205 43.2196C6.87651 41.714 7.06491 40.7349 7.28471 39.661C7.42077 39.1346 7.55684 38.6081 7.70337 37.9132C7.8499 37.2184 7.99643 36.4498 8.31043 35.5127C7.93363 35.8181 7.6615 36.2392 7.58824 35.9339C7.7871 35.239 8.43602 34.502 8.63489 34.702V34.9021C8.76631 34.3382 8.94128 33.7856 9.15822 33.2491C9.39414 32.6755 9.67046 32.1196 9.98507 31.5856C10.3095 31.0697 10.6445 30.5327 11.0317 30.0484L12.2354 28.6376C12.989 27.6795 13.8577 26.8583 14.5485 26.016C15.2018 25.2629 15.7607 24.4319 16.2127 23.5418L16.1289 23.7313C16.4534 23.2154 16.7674 22.6785 17.1128 22.1731L18.2118 20.6886C19.4677 19.5725 17.7722 21.6782 18.8816 21.0571C19.3553 20.2735 19.9407 19.5641 20.6191 18.9514C21.1693 18.4119 21.7685 17.9255 22.4088 17.4984C23.6715 16.6964 24.8716 15.7989 25.9989 14.8136C27.4642 14.8136 29.3482 13.645 31.3787 12.4868C33.2051 11.3029 35.2414 10.4843 37.376 10.0758L37.0515 9.79154C37.7528 9.14929 38.0982 9.63361 38.768 9.49674C38.5796 9.25458 37.7214 9.49674 38.2028 9.12824C41.7482 7.67287 45.4794 6.72656 49.2869 6.31712C53.1419 5.84775 57.0216 5.61219 60.9047 5.61171C61.3247 5.63822 61.7452 5.57076 62.1362 5.4142C62.5271 5.25764 62.8786 5.01586 63.1655 4.70625C63.647 4.32723 64.2122 3.95873 66.0229 4.45357L64.9762 5.13792C70.691 4.27458 76.5731 5.68541 82.1413 6.05391C81.775 6.14866 81.7331 6.34871 81.1994 6.25395C82.246 6.90672 85.386 7.18046 85.5534 6.76985C86.3907 7.012 85.6581 7.18046 86.1291 7.50684C86.7475 7.77215 87.4141 7.90482 88.0863 7.8964C88.3991 7.90708 88.7105 7.94228 89.0179 8.00168C89.1373 8.0259 89.2533 8.0648 89.3632 8.1175H89.4365L89.6982 8.21226L89.8028 8.31754C89.8028 8.37018 89.8028 8.40177 89.5935 8.39124H89.4051H89.0283C89.084 8.38594 89.1401 8.38594 89.1958 8.39124H89.3423H89.5202L90.0854 8.49653L91.1321 8.72815C91.8019 8.86502 92.3148 8.9282 92.0427 8.5597C92.9479 8.94096 93.8825 9.2473 94.8372 9.47568C95.6866 9.69667 96.4956 10.0521 97.2341 10.5285C97.9866 10.5642 98.7131 10.8163 99.3274 11.255C99.9972 11.6656 100.604 11.992 100.971 11.6656C100.426 12.4026 103.661 14.1082 104.948 14.5504C104.435 14.5504 105.691 15.4243 105.053 15.4559C106.193 16.3403 107.366 17.0246 107.47 16.5087C107.778 17.1273 108.214 17.6728 108.747 18.1091C109.228 18.5365 109.735 18.9338 110.265 19.2988C111.312 20.0042 112.065 20.7623 112.044 21.7835C115.085 24.6129 117.645 27.924 119.622 31.5856C119.172 31.7119 118.659 30.7433 118.146 29.8168C117.633 28.8903 117.1 28.0375 116.702 28.3533C118.858 31.3856 120.522 33.1017 121.558 36.7762C121.736 37.7448 120.993 36.3761 120.731 36.1339C122.354 39.5873 122.668 43.1565 123.589 46.4203C123.505 46.4203 123.359 46.0729 123.243 45.7359C123.359 46.3992 123.243 47.2836 123.714 47.1678L123.516 46.5361C123.767 45.9676 124.164 46.5361 124.562 47.3679C124.781 48.0016 125.069 48.6089 125.42 49.1788C124.761 48.6418 124.761 49.5052 124.677 50.2316C124.594 50.9581 124.437 51.674 123.631 50.8002C123.725 51.2318 123.945 51.7793 124.227 51.674C124.154 52.3373 123.997 52.5374 123.652 51.8846C123.882 54.2535 124.353 53.4323 124.238 55.6012C124.028 55.6012 123.997 55.1379 123.756 54.9063C124.236 56.2103 124.323 57.6273 124.007 58.9808C123.903 58.8545 123.704 59.044 123.777 58.5071C123.432 61.6024 123.997 64.0661 122.574 67.33C122.291 66.6983 122.134 66.9615 121.956 67.33C121.778 67.6985 121.506 68.2881 121.108 68.2459C120.972 68.8566 120.847 69.4778 120.7 70.0884L121.318 69.5094C120.731 71.036 120.784 72.6679 119.936 73.8261L120.135 72.5837C119.758 73.5207 119.413 74.4894 118.994 75.4264C119.371 74.9631 119.653 74.4578 120.041 73.9735C119.706 75.6686 121.087 74.2472 119.863 76.1423C119.988 75.7001 119.099 77.6479 118.251 78.1533C118.087 79.1322 117.652 80.0447 116.995 80.7854C116.608 80.9118 116.419 80.1011 116.168 80.1748C116.035 80.9785 115.696 81.7335 115.184 82.3647C114.639 83.0421 114.243 83.828 114.022 84.6705C114.106 84.302 113.792 84.0282 113.656 84.0598V84.9231C113.039 85.418 112.902 85.4496 112.735 85.1442C111.196 86.8604 113.981 85.2285 111.866 87.0499C111.981 86.8499 111.866 86.8814 112.086 86.4919C110.139 88.4291 108.737 90.7033 106.738 92.2826C105.691 92.2826 108.172 90.577 107.094 90.7138C104.571 93.4828 102.174 96.7362 99.432 98.9682L99.9868 98.5892C100.364 99.7473 97.6318 99.9684 96.6479 101.59C96.9201 101.232 96.6479 100.737 96.6479 100.916C94.7116 102.453 93.0998 104.548 90.7344 107.496L90.8495 106.959C89.4636 108.159 88.1691 109.461 86.9769 110.855C86.8827 111.392 86.2966 112.097 86.9769 111.908C85.0173 113.328 83.5291 115.309 82.7065 117.593C81.9978 119.752 81.0536 121.824 79.891 123.773C80.0585 123.268 80.069 122.489 79.891 122.889C79.5589 124.123 79.2933 125.374 79.0956 126.637C79.6398 126.448 79.5038 126.216 80.0585 125.584C80.2053 126.406 80.2053 127.247 80.0585 128.069C80.0585 126.374 79.2944 127.932 78.9072 128.627C79.0746 128.522 79.1898 128.796 79.3572 128.764C78.7502 129.659 79.0223 129.817 79.2735 129.985C79.5247 130.154 79.8282 130.47 79.42 131.754L79.1793 131.596C79.3522 132.578 79.4606 133.569 79.5038 134.565C78.9386 135.018 79.2526 133.512 78.792 133.449C78.8024 133.826 78.8551 134.2 78.949 134.565C79.0328 134.828 79.1584 135.165 79.284 135.513C79.5247 136.187 79.6922 137.018 79.441 137.366C79.2421 136.671 79.1898 135.902 78.9909 135.355C78.8 135.598 78.6513 135.872 78.5513 136.166C78.5405 136.271 78.5405 136.376 78.5513 136.481V136.66C78.5513 136.734 78.4153 136.66 78.342 136.66H78.4257C77.8082 136.555 77.2535 136.46 76.7825 136.355L77.2011 136.534C77.1384 136.706 77.032 136.859 76.8925 136.977C76.753 137.096 76.5851 137.175 76.4057 137.208C75.931 137.309 75.4464 137.354 74.9613 137.345C73.8247 137.258 72.6822 137.401 71.6015 137.766C74.0193 136.85 71.9993 137.239 72.1877 136.597C71.5597 136.429 70.5968 136.229 70.8689 136.05C69.6966 136.566 68.9116 135.639 67.2579 136.397C67.1847 136.187 66.0019 136.397 66.2741 135.86C64.746 136.018 66.6299 136.218 66.5043 136.471C64.1598 137.176 60.9885 135.618 57.6078 136.587C54.6981 136.976 54.1643 137.639 51.4535 138.019C50.5429 137.692 52.2071 137.271 52.2071 137.271C51.8407 137.197 51.4953 137.145 51.1604 137.103H50.6789H50.2394C49.7012 137.127 49.1657 137.194 48.638 137.303C48.9938 137.124 48.8368 136.966 48.7636 136.734H48.4914C48.4077 136.734 48.3135 136.797 48.303 136.734C48.2293 136.703 48.1519 136.682 48.0728 136.671C47.9367 136.671 47.8425 136.45 47.989 135.786C48.2193 135.871 48.5856 135.881 48.8159 135.965L48.4391 135.018C48.3553 134.795 48.2888 134.566 48.2402 134.334C48.1774 134.004 48.1251 133.653 48.0832 133.281C48.2612 133.102 48.3972 133.281 48.5124 133.628C48.6275 133.976 48.617 133.965 48.6798 134.134L48.7531 134.386C48.7531 134.449 48.8159 134.47 48.8368 134.513C48.8578 134.555 48.8368 134.186 48.8368 133.986L48.7845 133.323C48.7845 132.87 48.6903 132.407 48.638 131.986C48.6196 131.333 48.4281 130.697 48.0832 130.143L47.8634 131.122C47.8634 130.564 48.3554 130.849 48.4391 131.259C48.8578 132.575 48.2193 133.144 48.01 133.218L47.8948 132.249C47.2878 132.723 47.3192 133.744 47.4971 134.786C47.5913 135.281 47.7169 135.755 47.8111 136.166C47.8634 136.366 47.9053 136.555 47.9367 136.745C47.9681 136.934 47.9367 137.208 48.1774 137.124C48.0365 137.249 47.8691 137.341 47.6878 137.392C47.5065 137.443 47.3161 137.452 47.1308 137.418L47.3087 137.766H47.3925H47.5495L47.8739 137.671C48.2926 137.545 48.6798 137.429 49.0252 137.303C49.2241 137.534 49.3916 138.029 48.2716 138.155C48.7108 138.32 49.1904 138.342 49.6428 138.219C50.0576 138.108 50.4975 138.146 50.8883 138.324C51.0139 138.398 50.9615 138.44 50.8359 138.482L52.1966 138.219C51.9349 138.398 52.4269 138.84 51.5895 138.713C54.0282 139.219 55.5354 138.05 56.4565 138.713H56.2471C59.6383 138.419 56.5716 138.071 59.1254 137.324L60.8315 138.903L61.1664 138.261C61.5223 138.261 62.2131 138.334 62.0875 138.587C63.3853 138.155 61.8572 138.313 62.6213 137.892C64.3064 138.482 67.2684 137.618 67.6452 138.65C68.2522 138.155 66.0333 138.271 67.8336 137.934C68.3464 138.987 69.9269 137.745 71.455 138.25C70.9735 138.819 69.5187 138.513 71.0573 139.019C71.9888 138.061 74.0612 139.229 75.359 139.019C75.4323 138.64 75.9766 138.555 77.243 138.534H79.1898H80.2364H80.5923C80.5975 138.492 80.5975 138.45 80.5923 138.408L80.5086 137.871C80.6551 138.071 80.6865 136.903 80.6865 135.239C80.6865 134.281 80.7912 133.712 80.8435 133.028C80.8846 132.432 80.9756 131.84 81.1156 131.259L81.2412 131.333C80.8749 131.112 80.7702 130.501 80.7493 129.743C80.7284 128.985 80.9377 128.122 80.9796 127.364C81.4192 127.522 81.5552 127.816 81.6285 128.627L81.8483 127.279C81.6872 126.722 81.6872 126.131 81.8483 125.574L82.3193 126.058C82.7065 124.31 82.7589 122.31 84.1195 120.32C83.7113 119.941 81.9006 121.373 82.7589 118.92C83.0624 118.92 83.5439 119.109 83.3345 119.762C83.408 119.352 83.5647 118.961 83.795 118.614V119.752C84.4858 118.878 83.7009 119.046 84.1404 118.288C84.4858 118.499 84.737 117.867 84.9464 118.141C84.8626 118.341 84.423 118.72 84.4126 119.099C84.8515 118.326 85.4781 117.677 86.2338 117.214C86.0035 117.214 85.7418 116.909 86.1082 116.277C87.1548 114.729 86.8722 116.035 87.6572 115.224C87.6572 114.687 88.6411 113.94 88.1701 113.529C88.505 113.097 88.7876 113.203 89.0493 113.14C89.4788 112.428 89.9543 111.746 90.4727 111.097C91.0065 110.413 91.3414 109.876 90.7344 110.044L90.525 110.202L90.6192 110.065C92.3253 107.254 95.5176 105.527 97.6841 103.18L97.8202 103.338C99.0553 101.864 100.876 100.358 101.588 99.1261C102.007 98.7471 102.834 98.5049 102.823 98.8524C103.556 97.8171 104.484 96.9371 105.555 96.2624C104.718 97.5469 106.152 96.1571 104.623 97.4942C106.152 96.3255 106.717 96.2729 107.763 94.4199C107.617 95.2937 109.271 93.904 109.857 93.1249L108.632 93.8092C109.266 93.0996 109.94 92.4281 110.652 91.7983L110.799 92.6406C112.285 91.5273 113.499 90.0867 114.347 88.4291C115.04 86.9502 116.127 85.6931 117.487 84.7968C117.738 83.6492 115.906 86.3445 116.032 85.2285C116.636 84.5567 117.318 83.9594 118.062 83.4491C118.507 83.1697 118.927 82.8527 119.318 82.5016C119.939 81.8938 120.312 81.0756 120.365 80.2064C120.449 79.3274 120.751 78.4838 121.244 77.7532C120.868 77.9427 120.198 77.9006 120.836 76.0686C121.673 74.4683 122.72 74.4473 122.417 75.6159C122.249 76.0265 122.092 76.195 122.019 76.1423C121.862 76.7214 121.569 77.4584 122.155 76.932L122.05 76.6056C122.657 75.8791 123.693 73.5102 123.819 74.2156C124.102 72.8048 123.693 73.5102 123.149 74.4157C124.384 72.31 124.499 70.9518 125.525 68.7303C125.274 69.0566 124.876 69.2988 125.002 68.9303C125.703 67.2773 125.672 66.8246 125.588 66.5614C125.504 66.2982 125.337 66.1192 125.588 64.9295C126.268 63.6766 126.352 65.6243 126.635 63.1607C127.147 61.7288 127.346 62.9711 127.409 63.6134C127.417 62.5573 127.605 61.5105 127.964 60.518C128.236 59.6125 128.56 58.8229 128.686 58.1701V59.402C128.681 58.7582 128.715 58.1146 128.791 57.4753L128.236 58.1175C128.382 57.4226 128.424 56.8225 128.634 56.8541C128.362 56.1065 127.765 57.3279 127.43 55.8855C127.775 54.98 127.252 53.0849 127.932 52.7269C127.639 55.6433 128.602 52.411 128.644 54.9063C128.584 54.3131 128.606 53.7144 128.707 53.127C128.78 53.0217 128.843 53.2323 128.874 53.4218C129.22 52.011 128.969 51.674 128.717 51.3161C128.466 50.9581 128.142 50.6528 128.058 49.2104C128.456 49.5578 128.707 48.4944 128.592 48.0206C128.676 49.1998 128.016 48.6208 127.65 47.5784C127.744 45.7044 127.2 45.6096 127.126 44.641V45.757C126.718 45.4306 126.655 44.5252 126.31 43.2933C126.572 43.1249 126.697 44.3462 126.75 43.925C125.881 42.6511 126.833 40.6296 125.891 38.7871C125.891 37.829 126.54 38.5134 126.488 37.7343C126.101 37.0308 125.868 36.2515 125.808 35.4496C125.763 34.6145 125.503 33.8056 125.054 33.1017C124.845 33.9229 124.991 33.9756 123.934 32.6174L124.803 34.3546L125.588 36.1445C125.086 35.4285 124.635 34.7126 124.091 34.0387C124.499 35.0916 125.138 36.2497 125.326 36.9341C124.562 35.9444 124.73 36.0286 124.499 36.6709C124.74 34.9231 123.086 33.8808 122.856 32.0278L124.018 31.5856C123.691 30.2816 123.087 29.0642 122.249 28.0164C121.872 27.4479 121.443 26.8899 121.014 26.2687C120.553 25.589 120.127 24.8862 119.737 24.163C119.884 24.5315 120.041 24.8895 120.177 25.2158C119.496 25.0684 118.942 23.3733 118.083 22.5416C118.492 22.3942 118.178 21.7098 118.083 21.1518C117.905 21.3624 116.472 19.0461 115.624 19.3093C115.435 18.7724 115.195 18.2565 114.975 17.7406C114.344 16.8755 113.474 16.2164 112.473 15.8454C111.522 15.4914 110.647 14.955 109.899 14.2662C110.82 14.4767 110.056 13.4028 111.678 14.4136C110.977 13.7818 110.391 13.1712 110.192 13.3607C109.93 12.8027 107.837 12.171 107.366 11.3708C106.937 11.2971 106.591 11.5814 105.764 10.9602C105.712 10.8233 105.879 10.7917 105.879 10.7917C105.879 10.7917 104.372 10.1495 104.833 11.0128C104.337 10.3231 103.72 9.73077 103.012 9.26511C102.203 8.75418 101.36 8.30036 100.489 7.90693C99.5995 7.5279 98.7308 7.12782 97.9458 6.76985C97.2221 6.47593 96.5559 6.05531 95.9781 5.52748C94.9838 5.28532 93.8848 4.99052 92.8381 4.7589L91.2682 4.43251L90.525 4.27458L90.0122 4.14824C90.1587 4.05348 90.075 3.9482 90.389 4.07454C88.0759 3.02169 88.6097 4.77995 85.9826 3.70604C84.737 2.72689 87.5316 3.70604 86.7152 3.23226C86.6419 1.83196 83.345 2.6216 81.6075 1.54769H82.0785C81.253 1.21155 80.3588 1.08151 79.4724 1.16867C78.3553 1.24723 77.2331 1.21196 76.1231 1.06338C76.1231 1.06338 76.2592 0.958096 76.1231 0.86334C75.0412 1.13672 73.9311 1.2816 72.8157 1.29501C71.5492 1.35818 70.2095 1.42135 69.0686 1.45294C69.8013 0.947568 70.1153 1.22131 69.7071 0.652769C68.6604 0.652769 69.9688 1.51611 67.9383 1.61087C67.2893 1.31607 65.8449 1.04232 65.6147 0.452727H67.5615C66.5776 -0.305327 65.039 0.452727 64.0238 0.336913L64.1703 0C61.1873 0.189514 61.1873 1.05285 58.0264 1.1792L58.3718 1.41082C56.7181 2.33733 56.8856 1.07391 55.2319 1.86355L54.6039 1.1055C54.0492 1.26342 53.0758 1.57928 52.0082 1.96884C50.9406 2.35839 49.7474 2.6953 48.7636 3.02169C49.8102 2.14782 52.1233 1.50558 53.5572 0.915982C52.4164 1.05285 49.7056 1.53717 49.1927 2.10571C49.6365 1.8593 50.1307 1.71881 50.6371 1.69509C49.9258 2.15608 49.1723 2.54743 48.3868 2.86376C47.4251 3.21543 46.4429 3.50727 45.4457 3.73763C45.4457 2.89535 44.0013 3.16909 42.3057 3.53759C40.6101 3.90609 38.7262 4.49568 37.6795 4.21141C34.0372 6.07496 30.0285 6.91725 25.8837 9.40198C27.977 9.65466 24.6801 10.1179 25.5907 11.076C24.7115 11.7393 24.3556 11.9499 24.23 11.9288C23.1834 12.3184 22.0739 12.6974 21.0377 13.1923C20.169 13.3607 21.7285 12.3289 21.4773 12.1394C19.4363 13.5292 20.326 12.3079 18.7979 13.0238C19.3421 13.1817 18.5048 14.0766 17.3326 14.8558C17.971 14.582 18.5781 14.2872 19.227 14.0451C18.5862 14.9405 17.6819 15.6108 16.6418 15.9613C15.5868 16.3391 14.7024 17.0866 14.1508 18.067L14.6636 17.0141C13.4704 18.3618 10.0583 21.9309 9.92227 24.0156C9.61874 24.184 9.07448 24.3209 9.47221 23.626C8.77053 24.5083 8.16686 25.465 7.67197 26.4793C7.4103 26.9846 7.12771 27.5321 6.88698 28.027L6.27992 29.6273L5.63099 31.175L5.0658 32.6385C4.72604 33.5142 4.32014 34.3624 3.85168 35.1758L3.66329 34.7442C3.48535 35.5443 3.77842 36.2603 3.16089 37.1131C3.05623 37.0183 2.97249 36.713 2.83643 37.0604C2.70037 37.4079 2.83643 37.8185 2.6899 38.4291C2.65905 39.0435 2.53917 39.65 2.33404 40.2295L2.19797 39.2609C1.8869 40.1508 1.65571 41.0669 1.50718 41.9983C1.42116 42.8024 1.39666 43.612 1.43391 44.4199C1.43391 45.1885 1.49671 45.936 1.55951 46.7046C1.6521 47.5047 1.69057 48.3102 1.67465 49.1156C1.44438 49.1156 1.24552 49.2841 1.05712 49.5999C0.955704 49.7825 0.868231 49.9725 0.795456 50.1685L0.669858 50.537C0.631977 50.7142 0.604022 50.8935 0.586126 51.0739C0.366329 52.6427 0.24073 54.7484 0.156998 56.1065H0V57.6121V57.9701C0.0732657 57.9701 0.24073 57.9701 0.366329 57.9701H1.14085C2.18751 57.9701 3.16089 57.9701 4.12381 57.8859H5.5368C5.97639 57.8859 6.58345 57.8332 6.69858 57.8122L8.14296 57.6332C10.0583 57.3805 11.9214 57.0646 14.0566 56.8857C16.7046 57.9385 23.0264 57.3068 27.2758 57.8753C26.6269 57.7069 27.3804 57.1489 28.1445 57.0541C29.1388 57.2436 30.8972 56.4119 30.7402 57.2647H30.3843C31.1379 58.107 33.1894 57.8859 34.7908 57.9069L35.0524 56.7909C35.721 57.0541 36.4284 57.2036 37.1457 57.2331C38.1924 57.3279 39.239 57.3805 40.2857 57.4016H41.5103C41.5764 57.4068 41.6429 57.4068 41.7091 57.4016V57.191V55.5275V53.8219C41.7091 53.2849 41.7091 52.769 41.7091 52.1583C41.7064 51.11 41.8401 50.0658 42.1069 49.0524C42.2141 48.6509 42.365 48.2625 42.5569 47.8943C42.7444 47.6074 42.9862 47.3606 43.2686 47.1678C43.4445 46.2052 43.7073 45.2608 44.0536 44.3462L44.5351 44.7041C44.8591 44.2561 45.2086 43.8272 45.5817 43.4197C45.7277 43.2211 45.8849 43.0313 46.0527 42.8511L46.5656 42.3247C47.3674 41.4527 48.2239 40.6334 49.1299 39.8716C49.0298 40.0983 48.9527 40.3346 48.8996 40.577C50.2498 39.6189 49.6532 37.8606 51.1499 36.9867L51.9977 37.5237C52.699 37.1762 53.4421 36.9025 54.1643 36.6288C54.8865 36.355 55.6819 36.2076 56.4355 36.0181C57.1891 35.8286 57.9532 35.6391 58.7172 35.4496C59.4817 35.2634 60.2333 35.0278 60.9675 34.7442C60.9675 34.8916 60.8733 35.1337 60.3814 35.2495C60.7373 35.1864 61.292 35.1864 61.8781 35.1548L62.7992 35.06C63.1132 35.06 63.4272 35.06 63.7098 35.06C64.882 34.9863 65.8031 34.8705 65.5414 34.2493C65.5414 34.6599 66.3683 34.6915 67.394 34.6178C68.4197 34.5441 69.6862 34.4388 70.534 34.4704L70.1781 34.9968C70.7271 34.8047 71.2861 34.643 71.8527 34.5125C72.5548 34.4787 73.2583 34.5353 73.946 34.681C74.3856 34.9021 74.2182 35.239 73.632 34.9337C74.0696 35.1894 74.5709 35.3136 75.0764 35.2916C75.6787 35.2525 76.2733 35.4444 76.7406 35.8286C76.4685 35.8286 76.2068 35.8286 75.9347 35.8286C76.6688 36.2955 77.5477 36.4753 78.4048 36.334C79.0306 36.5812 79.6082 36.9376 80.1108 37.3868C80.6028 37.9132 80.9272 38.4397 80.8644 38.7239C81.1686 38.659 81.485 38.6847 81.775 38.7976C82.1842 38.9832 82.5431 39.2648 82.8217 39.6189C82.8217 39.8505 82.4449 39.7031 82.2669 39.6189C82.7065 40.1558 83.1357 40.5454 83.4915 40.9455C83.8474 41.3455 84.2346 41.6403 84.5382 41.9983C84.8396 42.3335 85.1227 42.6849 85.386 43.0512C85.5133 43.2329 85.6286 43.4228 85.7314 43.6197C85.8201 43.8354 85.8799 44.062 85.9093 44.2935C85.8453 44.346 85.7961 44.4145 85.7667 44.4921C85.7374 44.5697 85.7288 44.6537 85.7418 44.7357C85.1922 43.6309 84.5515 42.5743 83.8264 41.5772C83.6171 41.7456 83.8264 42.1668 83.8264 42.4721C83.8264 42.7774 83.7218 42.9459 83.0205 42.7037C83.3483 42.9032 83.6598 43.1285 83.952 43.3776C84.3183 43.6622 84.6678 43.968 84.9987 44.2935C85.6613 44.9523 86.1288 45.7834 86.3489 46.694C86.3239 46.7871 86.2851 46.8758 86.2338 46.9573L86.1291 46.8204C86.1946 47.1643 86.3378 47.4885 86.5478 47.7679C86.5617 48.2229 86.6036 48.6764 86.6733 49.1261C86.464 49.2735 86.5268 49.7368 86.6001 50.2843C86.6733 50.8318 86.7361 51.474 86.7571 51.8951C87.3432 51.7793 87.3432 52.948 87.7409 51.8951C87.7409 52.032 87.6467 51.7372 87.5839 51.1581C87.5626 51.0329 87.5311 50.9097 87.4897 50.7896V50.8423C87.4897 50.5685 87.4897 50.2316 87.3746 49.8737L87.1129 48.726C87.3922 49.0319 87.5919 49.4025 87.6941 49.8048C87.7964 50.2071 87.7981 50.6287 87.6991 51.0318C88.0755 51.4067 88.4252 51.8078 88.7457 52.232C87.9398 53.5271 87.3641 55.8433 86.8094 56.1276C86.9769 58.9177 86.0035 62.3605 86.3489 64.382C86.2233 65.1927 85.7209 65.119 85.4488 65.319C85.5873 64.9196 85.6581 64.4997 85.6581 64.0766C85.4367 65.0212 85.1428 65.9469 84.7789 66.8457C84.4021 67.7827 84.1195 68.625 84.3707 68.9514C83.0624 70.5201 84.3707 67.6458 83.031 70.0042V69.562C81.4412 71.3667 80.1224 73.3956 79.1165 75.5843C77.9693 77.9719 76.1494 79.9674 73.8832 81.3224C74.2496 81.0908 74.438 80.9749 74.5845 81.0065C69.1733 85.4706 64.3796 91.2929 58.7277 95.6412C57.1682 96.9467 57.3985 97.4732 56.8647 98.6418L56.1006 98.5471C55.818 99.2314 55.5668 99.9474 55.3156 100.653C54.9615 101.271 54.5249 101.838 54.0178 102.337C53.5258 102.822 52.9711 103.253 52.4583 103.759C51.1839 104.814 50.2872 106.26 49.9044 107.875L50.501 107.633C50.0857 108.416 49.7119 109.221 49.3811 110.044C49.0566 110.876 48.7636 111.497 48.5752 111.297C48.6582 111.467 48.6886 111.658 48.6625 111.846C48.6364 112.034 48.5549 112.209 48.4286 112.35L48.1042 112.276C47.9172 113.409 47.7914 114.551 47.7274 115.698C47.3297 116.951 47.0366 116.751 46.6807 116.751C46.3249 116.751 46.0318 116.888 45.7492 118.857C45.7388 119.738 45.8659 120.615 46.126 121.457C46.3458 122.247 46.5865 122.773 46.7121 122.51C46.7121 121.941 46.9738 121.057 47.3087 121.036L47.4239 122.31C48.3868 122.573 49.3497 123.363 50.1556 120.583C49.9568 119.899 49.9149 119.225 49.7788 118.478L50.3336 117.909L50.2394 119.678C50.815 118.793 50.4591 118.151 50.3336 117.435C50.6451 117.298 50.8923 117.045 51.0243 116.73C50.838 116.038 50.6981 115.335 50.6057 114.624C51.0453 114.519 51.0767 115.677 51.6523 114.498C51.5163 113.445 50.6057 115.087 50.7627 113.529C51.4639 112.74 51.7465 113.161 51.8093 111.96C52.0919 111.96 52.1547 112.192 52.0919 112.645C52.1744 112.057 52.3255 111.481 52.542 110.929C52.7736 110.482 52.8648 109.975 52.8037 109.476C53.7247 108.823 54.3841 106.391 55.1377 106.98C55.2339 106.006 55.5488 105.066 56.0587 104.232C55.9855 105.285 56.5297 104.548 57.1682 103.738C57.8067 102.927 58.6335 102.021 58.937 102.579C58.937 100.937 61.6479 98.7892 62.9039 96.7677C62.9039 96.9151 62.7992 97.2099 62.6213 97.3258C63.2833 96.7662 64.0196 96.302 64.8088 95.9465C64.3587 95.2411 65.688 93.6724 66.1589 92.5353C67.8859 91.9983 66.1066 93.925 66.9963 94.1251C66.4834 93.6934 68.5976 91.7035 67.8127 91.6825C69.0582 91.1876 68.7651 91.1244 69.6966 91.1876C69.1628 90.2822 70.4293 90.2611 70.7433 89.0819C72.4179 88.2186 71.7899 89.4715 72.9831 87.8711C73.9146 87.4816 72.868 88.9661 72.868 88.9661ZM89.5621 44.9568L89.9389 45.9465L89.5621 44.9568ZM87.5735 41.135C87.9199 41.6541 88.2378 42.1918 88.5259 42.7458C88.4108 42.9775 88.1491 42.9354 87.9712 42.5458C88.2224 42.6721 87.8037 41.7667 87.5735 41.135V41.135ZM86.7257 50.1685C86.5373 49.642 86.6105 49.442 86.7257 49.3472C86.778 49.6104 86.9036 49.8947 86.9664 50.2948L87.0501 50.358C86.9265 50.3266 86.814 50.261 86.7257 50.1685V50.1685Z" fill="#99FCFD"/>
<path d="M87.5736 51.1049C87.5736 51.1891 87.5736 51.2313 87.6364 51.3365C87.6364 51.2207 87.7097 51.0944 87.7411 50.9786L87.5317 50.7891L87.5736 51.1049Z" fill="#99FCFD"/>
<path d="M90.6088 110.234H90.6716C90.6201 110.275 90.5586 110.3 90.4937 110.308C90.5288 110.279 90.5675 110.254 90.6088 110.234V110.234Z" fill="#99FCFD"/>
<path d="M38.0771 45.9662L38.2132 46.0083L38.2446 45.5977L38.0771 45.9662Z" fill="#99FCFD"/>
<path d="M78.8756 128.629C78.8128 128.629 78.75 128.734 78.6768 128.903C78.7186 128.892 78.7919 128.776 78.8756 128.629Z" fill="#99FCFD"/>
<path d="M78.2791 136.672L77.3267 136.461C77.6384 136.555 77.9568 136.625 78.2791 136.672V136.672Z" fill="#99FCFD"/>
<path d="M72.2715 136.375C72.2043 136.447 72.1542 136.533 72.125 136.628V136.628L72.2715 136.375Z" fill="#99FCFD"/>
<path d="M123.243 45.7551C123.249 45.6675 123.249 45.5795 123.243 45.4919C122.992 44.8918 123.097 45.2708 123.243 45.7551Z" fill="#99FCFD"/>
<path d="M118.199 78.2364C118.293 77.8785 118.377 77.5205 118.481 77.1836C118.178 77.6679 117.916 78.0469 118.199 78.2364Z" fill="#99FCFD"/>
<path d="M105.011 15.4154L104.822 15.2891L105.011 15.4154Z" fill="#99FCFD"/>
<path d="M119.214 75.8047C118.886 76.2144 118.637 76.6822 118.481 77.1839C118.784 76.7584 119.03 76.2947 119.214 75.8047V75.8047Z" fill="#99FCFD"/>
<path d="M49.1298 131.605V131.258C49.0994 131.269 49.066 131.269 49.0356 131.258L49.1298 131.605Z" fill="#99FCFD"/>
<path d="M49.0672 131.194L49.0044 130.805C49.0044 130.984 49.0044 131.131 49.0672 131.194Z" fill="#99FCFD"/>
<path d="M48.8789 129.984L49.0045 130.806C49.0527 130.525 49.0086 130.237 48.8789 129.984V129.984Z" fill="#99FCFD"/>
<path d="M50.5322 136.385L50.595 136.164C50.5575 136.232 50.536 136.308 50.5322 136.385Z" fill="#99FCFD"/>
<path d="M53.3792 136.323C52.4921 136.103 51.5818 135.994 50.6684 135.996C50.6652 136.052 50.6652 136.108 50.6684 136.165C50.9719 135.817 52.7198 136.68 53.3792 136.323Z" fill="#99FCFD"/>
<path d="M65.5311 138.977L63.0924 138.809C63.5215 139.03 64.0762 139.335 62.9668 139.398C66.044 140.03 62.3283 138.882 65.5311 138.977Z" fill="#99FCFD"/>
<path d="M73.1088 139.305C71.8005 139.41 73.1088 139.642 73.1088 139.768C73.8938 139.557 74.0927 139.505 73.1088 139.305Z" fill="#99FCFD"/>
<path d="M103.242 98.8008L103.503 99.2956C104.205 98.5481 103.378 99.1272 103.242 98.8008Z" fill="#99FCFD"/>
<path d="M108.852 89.4922L107.941 89.966V90.6398C108.287 90.2924 108.58 89.9133 108.852 89.4922Z" fill="#99FCFD"/>
<path d="M115.854 87.3852L115.624 87.7853L116.576 86.3008L115.854 87.3852Z" fill="#99FCFD"/>
<path d="M98.312 5.75V6.47647C99.0551 6.65545 99.4947 6.01321 98.312 5.75Z" fill="#99FCFD"/>
<path d="M58.351 0.78996C57.9982 0.607114 57.6071 0.511719 57.2102 0.511719C56.8133 0.511719 56.4222 0.607114 56.0693 0.78996C56.9799 0.705731 57.901 0.895245 58.351 0.78996Z" fill="#99FCFD"/>
<path d="M37.7424 57.582L36.3398 57.8031L39.0088 57.6136L37.7424 57.582Z" fill="#99FCFD"/>
</g>
<defs>
<clipPath id="clip0_5969_5100">
<rect width="129" height="200" fill="white"/>
</clipPath>
</defs>
</svg>
