<svg width="24" height="24" viewBox="0 0 24 24" fill="none" xmlns="http://www.w3.org/2000/svg">
<circle cx="12" cy="12" r="10.5" stroke="white"/>
<path d="M10.9922 14.7969H12.4375C12.4375 14.5938 12.4427 14.4141 12.4531 14.2578C12.4635 14.0964 12.4896 13.9453 12.5312 13.8047C12.5729 13.6641 12.6354 13.526 12.7188 13.3906C12.8073 13.2552 12.9297 13.112 13.0859 12.9609C13.3307 12.7422 13.5781 12.5052 13.8281 12.25C14.0833 11.9948 14.3125 11.7188 14.5156 11.4219C14.7188 11.1302 14.8854 10.8203 15.0156 10.4922C15.1458 10.1589 15.2109 9.80469 15.2109 9.42969C15.2109 8.96094 15.1354 8.54427 14.9844 8.17969C14.8333 7.8151 14.6146 7.50521 14.3281 7.25C14.0417 6.99479 13.6901 6.80208 13.2734 6.67188C12.862 6.53646 12.3932 6.46875 11.8672 6.46875C11.3932 6.46875 10.9505 6.53385 10.5391 6.66406C10.1328 6.78906 9.78125 6.97135 9.48438 7.21094C9.18229 7.45573 8.94271 7.7526 8.76562 8.10156C8.58854 8.45052 8.4974 8.84375 8.49219 9.28125H9.9375C9.9375 9.01042 9.99219 8.77865 10.1016 8.58594C10.2109 8.38802 10.3568 8.22396 10.5391 8.09375C10.7161 7.96875 10.9193 7.8776 11.1484 7.82031C11.3828 7.75781 11.6224 7.72656 11.8672 7.72656C12.1849 7.72656 12.4661 7.76823 12.7109 7.85156C12.9557 7.9349 13.1589 8.05729 13.3203 8.21875C13.4661 8.36458 13.5755 8.54427 13.6484 8.75781C13.7266 8.96615 13.7656 9.20573 13.7656 9.47656C13.7656 9.73698 13.7161 9.98438 13.6172 10.2188C13.5182 10.4531 13.3932 10.6745 13.2422 10.8828C13.0859 11.0964 12.9141 11.2995 12.7266 11.4922C12.5443 11.6849 12.3646 11.8724 12.1875 12.0547C11.9271 12.2943 11.7188 12.5026 11.5625 12.6797C11.4062 12.8516 11.2865 13.0312 11.2031 13.2188C11.1198 13.4115 11.0651 13.6302 11.0391 13.875C11.013 14.1146 10.9974 14.4219 10.9922 14.7969ZM10.8281 17.2422C10.8281 17.4818 10.901 17.6823 11.0469 17.8438C11.1979 18.0052 11.4219 18.0859 11.7188 18.0859C12.0156 18.0859 12.2396 18.0052 12.3906 17.8438C12.5469 17.6823 12.625 17.4818 12.625 17.2422C12.625 16.9922 12.5469 16.7839 12.3906 16.6172C12.2396 16.4505 12.0156 16.3672 11.7188 16.3672C11.4219 16.3672 11.1979 16.4505 11.0469 16.6172C10.901 16.7839 10.8281 16.9922 10.8281 17.2422Z" fill="white"/>
</svg>
