<svg width="41" height="41" viewBox="0 0 41 41" fill="none" xmlns="http://www.w3.org/2000/svg">
<rect x="20.6574" y="19.4914" width="14.4142" height="5.83794" rx="2.91897" stroke="white" stroke-width="0.951577"/>
<rect x="5.4503" y="13.2164" width="29.4627" height="18.7424" rx="3.17192" stroke="white" stroke-width="1.26877"/>
<path fill-rule="evenodd" clip-rule="evenodd" d="M4.81592 12.0468C4.81592 9.38249 7.00087 7.22266 9.69615 7.22266H31.0245C33.7198 7.22266 35.9048 9.38249 35.9048 12.0468C35.9048 12.3428 35.662 12.5828 35.3625 12.5828C35.0631 12.5828 34.8203 12.3428 34.8203 12.0468C34.8203 9.97456 33.1209 8.29469 31.0245 8.29469H9.69615C7.59982 8.29469 5.90041 9.97456 5.90041 12.0468V16.3349C5.90041 16.6309 5.65764 16.8709 5.35817 16.8709C5.05869 16.8709 4.81592 16.6309 4.81592 16.3349V12.0468Z" fill="white"/>
<path fill-rule="evenodd" clip-rule="evenodd" d="M12.957 17.6602C12.5136 17.6602 12.1543 18.0195 12.1543 18.4628V21.7881H8.82906C8.38574 21.7881 8.02637 22.1474 8.02637 22.5907C8.02637 23.0341 8.38574 23.3934 8.82906 23.3934H12.1543V26.4898C12.1543 26.9331 12.5136 27.2924 12.957 27.2924C13.4003 27.2924 13.7596 26.9331 13.7596 26.4898V23.3934H16.856C17.2993 23.3934 17.6587 23.0341 17.6587 22.5907C17.6587 22.1474 17.2993 21.7881 16.856 21.7881H13.7596V18.4628C13.7596 18.0195 13.4003 17.6602 12.957 17.6602Z" fill="#8AFCFD"/>
</svg>
