<svg width="100" height="100" viewBox="0 0 187 125" fill="none" xmlns="http://www.w3.org/2000/svg">
<rect x="0.520526" y="96.1094" width="27.9309" height="28.37" fill="white" stroke="#121212" stroke-width="1.04105"/>
<rect x="-0.520526" y="0.520526" width="27.9309" height="28.37" transform="matrix(-1 0 0 1 185.959 95.5889)" fill="white" stroke="#121212" stroke-width="1.04105"/>
<rect x="95.3375" y="96.1094" width="27.9309" height="28.37" fill="white" stroke="#121212" stroke-width="1.04105"/>
<rect x="123.315" y="92.6172" width="27.9309" height="28.37" transform="rotate(-180 123.315 92.6172)" fill="white" stroke="#121212" stroke-width="1.04105"/>
<rect x="110.088" y="92.5859" width="14.75" height="28.3214" transform="rotate(-180 110.088 92.5859)" fill="#121212" stroke="#121212" stroke-width="1.04105"/>
<rect x="95.3375" y="32.3848" width="27.9309" height="28.37" fill="white" stroke="#121212" stroke-width="1.04105"/>
<path d="M109.972 15.3896L109.98 15.3819L109.988 15.3739L123.268 1.30942V28.8905H96.0983L109.972 15.3896Z" fill="white" stroke="#121212" stroke-width="1.04105"/>
<rect x="32.1254" y="96.1094" width="27.9309" height="28.37" fill="white" stroke="#121212" stroke-width="1.04105"/>
<rect x="32.1254" y="64.2471" width="27.9309" height="28.37" fill="white" stroke="#121212" stroke-width="1.04105"/>
<rect x="32.1254" y="32.3848" width="27.9309" height="28.37" fill="white" stroke="#121212" stroke-width="1.04105"/>
<rect x="32.1254" y="0.520526" width="27.9309" height="28.37" fill="white" stroke="#121212" stroke-width="1.04105"/>
<rect x="126.943" y="96.1094" width="27.9309" height="28.37" fill="white" stroke="#121212" stroke-width="1.04105"/>
<rect x="126.943" y="64.2471" width="27.9309" height="28.37" fill="white" stroke="#121212" stroke-width="1.04105"/>
<rect x="126.943" y="32.3848" width="27.9309" height="28.37" fill="white" stroke="#121212" stroke-width="1.04105"/>
<rect x="126.943" y="0.520526" width="27.9309" height="28.37" fill="white" stroke="#121212" stroke-width="1.04105"/>
<rect x="63.7326" y="96.1094" width="27.9309" height="28.37" fill="white" stroke="#121212" stroke-width="1.04105"/>
<rect x="91.7329" y="92.6172" width="27.9309" height="28.37" transform="rotate(-180 91.7329 92.6172)" fill="white" stroke="#121212" stroke-width="1.04105"/>
<rect x="63.7326" y="32.3848" width="27.9309" height="28.37" fill="white" stroke="#121212" stroke-width="1.04105"/>
<path d="M77.0433 15.3739L90.9046 28.8905H63.7326V1.30744L77.0286 15.359L77.0358 15.3666L77.0433 15.3739Z" fill="white" stroke="#121212" stroke-width="1.04105"/>
<rect x="78.4826" y="92.5859" width="14.7501" height="28.3214" transform="rotate(-180 78.4826 92.5859)" fill="#121212" stroke="#121212" stroke-width="1.04105"/>
</svg>
