<svg width="38" height="38" viewBox="0 0 38 38" fill="none" xmlns="http://www.w3.org/2000/svg">
<path d="M13.8 26.5H16.8V11.5H13.8V26.5ZM21.2 26.5H24.2V11.5H21.2V26.5ZM19 38C16.3667 38 13.892 37.5 11.576 36.5C9.25867 35.5 7.25 34.15 5.55 32.45C3.85 30.75 2.5 28.7413 1.5 26.424C0.5 24.108 0 21.6333 0 19C0 16.3667 0.5 13.8913 1.5 11.574C2.5 9.258 3.85 7.25 5.55 5.55C7.25 3.85 9.25867 2.5 11.576 1.5C13.892 0.5 16.3667 0 19 0C21.6333 0 24.1087 0.5 26.426 1.5C28.742 2.5 30.75 3.85 32.45 5.55C34.15 7.25 35.5 9.258 36.5 11.574C37.5 13.8913 38 16.3667 38 19C38 21.6333 37.5 24.108 36.5 26.424C35.5 28.7413 34.15 30.75 32.45 32.45C30.75 34.15 28.742 35.5 26.426 36.5C24.1087 37.5 21.6333 38 19 38ZM19 35C23.4667 35 27.25 33.45 30.35 30.35C33.45 27.25 35 23.4667 35 19C35 14.5333 33.45 10.75 30.35 7.65C27.25 4.55 23.4667 3 19 3C14.5333 3 10.75 4.55 7.65 7.65C4.55 10.75 3 14.5333 3 19C3 23.4667 4.55 27.25 7.65 30.35C10.75 33.45 14.5333 35 19 35Z" fill="white"/>
</svg>
