<svg width="24" height="24" viewBox="0 0 24 24" fill="none" xmlns="http://www.w3.org/2000/svg">
<path d="M5.5 0.5H18.5V9C18.5 12.5899 15.5899 15.5 12 15.5C8.41015 15.5 5.5 12.5899 5.5 9V0.5Z" stroke="#F2C94C"/>
<path d="M3.5 2.5H5.5V8.5C5.5 9.05228 5.05228 9.5 4.5 9.5C3.94772 9.5 3.5 9.05228 3.5 8.5V2.5Z" stroke="#F2C94C"/>
<path d="M18.5 2.5H20.5V8.5C20.5 9.05228 20.0523 9.5 19.5 9.5C18.9477 9.5 18.5 9.05228 18.5 8.5V2.5Z" stroke="#F2C94C"/>
<rect x="11" y="15" width="2" height="3" fill="#F2C94C"/>
<path d="M5.55001 23.5C5.78164 22.3589 6.79052 21.5 8 21.5L16 21.5C17.2095 21.5 18.2184 22.3589 18.45 23.5L5.55001 23.5Z" stroke="#F2C94C"/>
<path d="M8.55001 20.5C8.78164 19.3589 9.79052 18.5 11 18.5L13 18.5C14.2095 18.5 15.2184 19.3589 15.45 20.5L8.55001 20.5Z" stroke="#F2C94C"/>
</svg>
