<svg width="41" height="41" viewBox="0 0 41 41" fill="none" xmlns="http://www.w3.org/2000/svg">
<path d="M16.856 16.0522C16.856 16.4955 17.2154 16.8549 17.6587 16.8549C18.102 16.8549 18.4614 16.4955 18.4614 16.0522H16.856ZM18.2263 5.0496C17.9128 4.73613 17.4046 4.73613 17.0911 5.0496L11.9828 10.1579C11.6693 10.4714 11.6693 10.9796 11.9828 11.2931C12.2963 11.6065 12.8045 11.6065 13.118 11.2931L17.6587 6.75236L22.1994 11.2931C22.5129 11.6065 23.0211 11.6065 23.3346 11.2931C23.648 10.9796 23.648 10.4714 23.3346 10.1579L18.2263 5.0496ZM18.4614 16.0522V5.61719H16.856V16.0522H18.4614Z" fill="#8AFCFD"/>
<path d="M22.4751 16.8555L22.4751 32.1066" stroke="white" stroke-width="1.60538" stroke-linecap="round"/>
<path d="M17.6587 20.0664L17.6587 32.1068" stroke="white" stroke-width="1.60538" stroke-linecap="round"/>
<path d="M12.8428 21.6719L12.8428 32.1069" stroke="white" stroke-width="1.60538" stroke-linecap="round"/>
<path d="M27.291 12.0391L27.291 32.1063" stroke="white" stroke-width="1.60538" stroke-linecap="round"/>
</svg>
