<svg width="100" height="100" viewBox="0 0 187 125" fill="none" xmlns="http://www.w3.org/2000/svg">
<rect x="0.520526" y="96.1094" width="27.9309" height="28.37" fill="white" stroke="#121212" stroke-width="1.04105"/>
<rect x="-0.520526" y="0.520526" width="27.9309" height="28.37" transform="matrix(-1 0 0 1 185.959 95.5889)" fill="white" stroke="#121212" stroke-width="1.04105"/>
<rect x="95.3374" y="96.1094" width="27.9309" height="28.37" fill="white" stroke="#121212" stroke-width="1.04105"/>
<rect x="95.3374" y="64.2471" width="27.9309" height="28.37" fill="white" stroke="#121212" stroke-width="1.04105"/>
<rect x="108.565" y="64.2783" width="14.75" height="28.3214" fill="#121212" stroke="#121212" stroke-width="1.04105"/>
<rect x="95.3374" y="32.3848" width="27.9309" height="28.37" fill="white" stroke="#121212" stroke-width="1.04105"/>
<path d="M109.972 15.3896L109.98 15.3819L109.988 15.3739L123.268 1.30942V28.8905H96.0982L109.972 15.3896Z" fill="white" stroke="#121212" stroke-width="1.04105"/>
<rect x="32.1253" y="96.1094" width="27.9309" height="28.37" fill="white" stroke="#121212" stroke-width="1.04105"/>
<rect x="32.1253" y="64.2471" width="27.9309" height="28.37" fill="white" stroke="#121212" stroke-width="1.04105"/>
<rect x="32.1253" y="32.3848" width="27.9309" height="28.37" fill="white" stroke="#121212" stroke-width="1.04105"/>
<rect x="32.1253" y="0.520526" width="27.9309" height="28.37" fill="white" stroke="#121212" stroke-width="1.04105"/>
<rect x="126.942" y="96.1094" width="27.9309" height="28.37" fill="white" stroke="#121212" stroke-width="1.04105"/>
<rect x="126.942" y="64.2471" width="27.9309" height="28.37" fill="white" stroke="#121212" stroke-width="1.04105"/>
<rect x="126.942" y="32.3848" width="27.9309" height="28.37" fill="white" stroke="#121212" stroke-width="1.04105"/>
<rect x="126.942" y="0.520526" width="27.9309" height="28.37" fill="white" stroke="#121212" stroke-width="1.04105"/>
<rect x="63.7327" y="96.1094" width="27.9309" height="28.37" fill="white" stroke="#121212" stroke-width="1.04105"/>
<rect x="63.7327" y="64.2471" width="27.9309" height="28.37" fill="white" stroke="#121212" stroke-width="1.04105"/>
<rect x="63.7327" y="32.3848" width="27.9309" height="28.37" fill="white" stroke="#121212" stroke-width="1.04105"/>
<path d="M77.0434 15.3739L90.9047 28.8905H63.7327V1.30744L77.0288 15.359L77.0359 15.3666L77.0434 15.3739Z" fill="white" stroke="#121212" stroke-width="1.04105"/>
<rect x="76.9827" y="64.2783" width="14.7501" height="28.3214" fill="#121212" stroke="#121212" stroke-width="1.04105"/>
</svg>
