<svg width="124" height="124" viewBox="0 0 124 124" fill="none" xmlns="http://www.w3.org/2000/svg">
<rect x="62.9429" y="55.6772" width="45.443" height="18.4051" rx="9.20253" stroke="white" stroke-width="3"/>
<rect x="15" y="35.8989" width="92.8861" height="59.0886" rx="10" stroke="white" stroke-width="4"/>
<path fill-rule="evenodd" clip-rule="evenodd" d="M13 32.2089C13 23.8092 19.8884 17 28.3857 17H95.6269C104.124 17 111.013 23.8092 111.013 32.2089C111.013 33.1422 110.247 33.8987 109.303 33.8987C108.359 33.8987 107.594 33.1422 107.594 32.2089C107.594 25.6758 102.236 20.3797 95.6269 20.3797H28.3857C21.7767 20.3797 16.419 25.6758 16.419 32.2089V45.7278C16.419 46.6611 15.6537 47.4177 14.7095 47.4177C13.7654 47.4177 13 46.6611 13 45.7278V32.2089Z" fill="white"/>
<path d="M57.5963 93.8578C58.2872 94.2377 58.2872 95.2305 57.5963 95.6104L42.9281 103.676C42.2616 104.042 41.4463 103.56 41.4463 102.8L41.4463 86.6687C41.4463 85.9081 42.2616 85.4259 42.9281 85.7924L57.5963 93.8578Z" fill="#67FF3F"/>
<path d="M72.2418 93.8578C72.9327 94.2377 72.9327 95.2305 72.2418 95.6104L57.5736 103.676C56.9071 104.042 56.0918 103.56 56.0918 102.8L56.0918 86.6687C56.0918 85.9081 56.9072 85.4259 57.5736 85.7924L72.2418 93.8578Z" fill="#67FF3F"/>
<path d="M86.8873 93.8578C87.5782 94.2377 87.5782 95.2305 86.8873 95.6104L72.2191 103.676C71.5527 104.042 70.7373 103.56 70.7373 102.8L70.7373 86.6687C70.7373 85.9081 71.5527 85.4259 72.2191 85.7924L86.8873 93.8578Z" fill="#67FF3F"/>
</svg>
