<svg width="122" height="122" viewBox="0 0 122 122" fill="none" xmlns="http://www.w3.org/2000/svg">
<rect x="65.0791" y="30.8848" width="5.71703" height="5.71703" transform="rotate(132.808 65.0791 30.8848)" fill="#FCC332"/>
<rect x="100.448" y="58.1387" width="3.14732" height="3.14732" transform="rotate(132.808 100.448 58.1387)" fill="#FCC332"/>
<rect x="50.5498" y="1.0498" width="4.62066" height="4.62066" transform="rotate(103.132 50.5498 1.0498)" fill="#FCC332"/>
<rect x="19.5498" y="75.0498" width="4.62066" height="4.62066" transform="rotate(103.132 19.5498 75.0498)" fill="#466DFF"/>
<rect x="121.55" y="61.0498" width="4.62066" height="4.62066" transform="rotate(103.132 121.55 61.0498)" fill="#FCC332"/>
<rect x="5.5498" y="55.0498" width="4.62066" height="4.62066" transform="rotate(103.132 5.5498 55.0498)" fill="#FCC332"/>
<rect x="87.2026" y="38.7495" width="7.06128" height="7.06128" transform="rotate(103.132 87.2026 38.7495)" fill="#8AFCFD"/>
<rect x="109.112" y="31.7236" width="7.5871" height="7.5871" transform="rotate(103.132 109.112 31.7236)" fill="#466DFF"/>
<rect x="43.5771" y="38" width="7.5871" height="7.5871" transform="rotate(28.1317 43.5771 38)" fill="#466DFF"/>
<rect x="77.0498" y="15.2061" width="7.20004" height="7.20004" transform="rotate(125.744 77.0498 15.2061)" fill="#D95EDC"/>
<rect width="6.52469" height="6.52469" transform="matrix(0.584161 -0.811638 -0.811638 -0.584161 107.296 80.1069)" fill="#D95EDC"/>
<rect x="27.9209" y="16.7612" width="7.20004" height="7.20004" transform="rotate(96.0679 27.9209 16.7612)" fill="#D95EDC"/>
<rect x="46.1689" y="27.4004" width="4.38493" height="4.38493" transform="rotate(140.849 46.1689 27.4004)" fill="#D95EDC"/>
<rect x="85.9985" y="4.46387" width="8.77519" height="8.77519" transform="rotate(-11.0719 85.9985 4.46387)" fill="#8AFCFD"/>
<rect x="13.9985" y="43.6851" width="8.77519" height="8.77519" transform="rotate(-11.0719 13.9985 43.6851)" fill="#8AFCFD"/>
<g clip-path="url(#clip0_8829_9732)">
<path d="M84.8148 122H38.1675C37.5504 122 37.0386 121.488 37.0386 120.87C37.0386 120.252 37.5504 119.74 38.1675 119.74H84.8148C85.4319 119.74 85.9437 120.252 85.9437 120.87C85.9437 121.488 85.447 122 84.8148 122Z" fill="white"/>
<path d="M84.8148 85.7484H38.1675C37.5504 85.7484 37.0386 85.2361 37.0386 84.6183C37.0386 84.0006 37.5504 83.4883 38.1675 83.4883H84.8148C85.4319 83.4883 85.9437 84.0006 85.9437 84.6183C85.9437 85.2361 85.447 85.7484 84.8148 85.7484Z" fill="white"/>
<path d="M38.1676 122H30.7769C30.1597 122 29.6479 121.488 29.6479 120.87V99.9718C29.6479 99.3541 30.1597 98.8418 30.7769 98.8418C31.394 98.8418 31.9058 99.3541 31.9058 99.9718V119.74H37.0387V99.9718C37.0387 99.3541 37.5504 98.8418 38.1676 98.8418C38.7847 98.8418 39.2965 99.3541 39.2965 99.9718V120.87C39.2965 121.488 38.7998 122 38.1676 122Z" fill="white"/>
<path d="M38.1676 92.7395C37.5504 92.7395 37.0387 92.2272 37.0387 91.6095V83.6239H31.9058V91.6095C31.9058 92.2272 31.394 92.7395 30.7769 92.7395C30.1597 92.7395 29.6479 92.2272 29.6479 91.6095V82.4938C29.6479 81.8761 30.1597 81.3638 30.7769 81.3638H38.1676C38.7847 81.3638 39.2965 81.8761 39.2965 82.4938V91.6095C39.2965 92.2272 38.7998 92.7395 38.1676 92.7395Z" fill="white"/>
<path d="M53.8971 100.695H28.1275C27.5103 100.695 26.9985 100.183 26.9985 99.5652V91.7453C26.9985 91.1275 27.5103 90.6152 28.1275 90.6152H53.8971C54.5142 90.6152 55.026 91.1275 55.026 91.7453C55.026 92.363 54.5142 92.8753 53.8971 92.8753H29.2564V98.4351H53.8971C54.5142 98.4351 55.026 98.9474 55.026 99.5652C55.026 100.183 54.5142 100.695 53.8971 100.695Z" fill="white"/>
<path d="M94.8695 100.695H69.2202C68.6031 100.695 68.0913 100.183 68.0913 99.5652C68.0913 98.9474 68.6031 98.4351 69.2202 98.4351H93.7405V92.8753H69.2202C68.6031 92.8753 68.0913 92.363 68.0913 91.7453C68.0913 91.1275 68.6031 90.6152 69.2202 90.6152H94.8695C95.4866 90.6152 95.9984 91.1275 95.9984 91.7453V99.5652C95.9984 100.198 95.4866 100.695 94.8695 100.695Z" fill="white"/>
<path d="M92.2052 92.7395C91.588 92.7395 91.0763 92.2272 91.0763 91.6095V83.6239H85.9434V91.6095C85.9434 92.2272 85.4316 92.7395 84.8145 92.7395C84.1973 92.7395 83.6855 92.2272 83.6855 91.6095V82.4938C83.6855 81.8761 84.1973 81.3638 84.8145 81.3638H92.2052C92.8223 81.3638 93.3341 81.8761 93.3341 82.4938V91.6095C93.3341 92.2272 92.8374 92.7395 92.2052 92.7395Z" fill="white"/>
<path d="M92.2052 122H84.8145C84.1973 122 83.6855 121.488 83.6855 120.87V99.9718C83.6855 99.3541 84.1973 98.8418 84.8145 98.8418C85.4316 98.8418 85.9434 99.3541 85.9434 99.9718V119.74H91.0763V99.9718C91.0763 99.3541 91.588 98.8418 92.2052 98.8418C92.8223 98.8418 93.3341 99.3541 93.3341 99.9718V120.87C93.3341 121.488 92.8374 122 92.2052 122Z" fill="white"/>
<path d="M66.7218 104.959H56.5013C54.6649 104.959 53.1597 103.452 53.1597 101.614V92.8599C53.1597 88.189 56.9529 84.3921 61.6191 84.3921C66.2853 84.3921 70.0785 88.189 70.0785 92.8599V101.629C70.0635 103.467 68.5582 104.959 66.7218 104.959ZM61.604 86.6522C58.1872 86.6522 55.4025 89.4396 55.4025 92.8599V101.629C55.4025 102.232 55.8841 102.714 56.4862 102.714H66.7068C67.3089 102.714 67.7906 102.232 67.7906 101.629V92.8599C67.8056 89.4396 65.0209 86.6522 61.604 86.6522Z" fill="white"/>
<path d="M63.9672 93.3875C63.9672 92.0767 62.9136 91.022 61.604 91.022C60.2945 91.022 59.2559 92.0767 59.2559 93.3875C59.2559 94.3669 59.8128 95.2107 60.7159 95.5723V98.9021C60.7159 99.4144 61.1073 99.8212 61.6191 99.8212C62.1309 99.8212 62.5222 99.4144 62.5222 98.9021V95.5723C63.4254 95.2107 63.9672 94.3669 63.9672 93.3875Z" fill="white"/>
<path d="M84.1975 108.379H56.5012C56.0797 108.379 55.7485 108.048 55.7485 107.626C55.7485 107.204 56.0797 106.873 56.5012 106.873H84.1975C84.619 106.873 84.9501 107.204 84.9501 107.626C84.9501 108.048 84.6039 108.379 84.1975 108.379Z" fill="white"/>
<path d="M52.2864 108.379H50.4802C50.0587 108.379 49.7275 108.048 49.7275 107.626C49.7275 107.204 50.0587 106.873 50.4802 106.873H52.2864C52.7079 106.873 53.0391 107.204 53.0391 107.626C53.0391 108.048 52.6929 108.379 52.2864 108.379Z" fill="white"/>
<path d="M45.8138 108.379H39.0402C38.6187 108.379 38.2876 108.048 38.2876 107.626C38.2876 107.204 38.6187 106.873 39.0402 106.873H45.8138C46.2352 106.873 46.5664 107.204 46.5664 107.626C46.5664 108.048 46.2202 108.379 45.8138 108.379Z" fill="white"/>
<path d="M84.1973 115.009H39.0402C38.6187 115.009 38.2876 114.677 38.2876 114.255C38.2876 113.833 38.6187 113.502 39.0402 113.502H84.1973C84.6188 113.502 84.9499 113.833 84.9499 114.255C84.9499 114.677 84.6037 115.009 84.1973 115.009Z" fill="white"/>
<path d="M91.9193 64.3829H31.0777C30.4605 64.3829 29.9487 63.8707 29.9487 63.2529C29.9487 59.8025 32.7485 57 36.1955 57H86.8015C90.2485 57 93.0482 59.8025 93.0482 63.2529C93.0482 63.8707 92.5364 64.3829 91.9193 64.3829ZM32.3722 62.1229H90.6398C90.1582 60.4655 88.6228 59.2601 86.8165 59.2601H36.1955C34.3892 59.2601 32.8538 60.4655 32.3722 62.1229Z" fill="white"/>
<path d="M33.3955 83.1416C32.7784 83.1416 32.2666 82.6293 32.2666 82.0116V63.6296C32.2666 63.0118 32.7784 62.4995 33.3955 62.4995C34.0127 62.4995 34.5245 63.0118 34.5245 63.6296V82.0116C34.5245 82.6293 34.0127 83.1416 33.3955 83.1416Z" fill="white"/>
<path d="M90.1431 83.1416C89.5259 83.1416 89.0142 82.6293 89.0142 82.0116V63.6296C89.0142 63.0118 89.5259 62.4995 90.1431 62.4995C90.7602 62.4995 91.272 63.0118 91.272 63.6296V82.0116C91.272 82.6293 90.7602 83.1416 90.1431 83.1416Z" fill="white"/>
<path d="M90.0678 82.1624H33.772C33.1548 82.1624 32.6431 81.6501 32.6431 81.0324C32.6431 80.4146 33.1548 79.9023 33.772 79.9023H90.0678C90.685 79.9023 91.1967 80.4146 91.1967 81.0324C91.1967 81.6501 90.685 82.1624 90.0678 82.1624Z" fill="white"/>
<path d="M40.3349 63.991C40.2446 63.991 40.1543 63.9759 40.079 63.9608C39.4769 63.8102 39.1006 63.2075 39.2361 62.6048C39.2813 62.439 40.1994 58.6722 44.1281 57.0902C44.7001 56.8491 45.3624 57.1354 45.6032 57.7079C45.8441 58.2805 45.5581 58.9434 44.9861 59.1845C42.1261 60.3447 41.4488 63.102 41.4488 63.1321C41.3133 63.6444 40.8467 63.991 40.3349 63.991Z" fill="white"/>
<path d="M82.6319 63.991C82.1202 63.991 81.6535 63.6444 81.5331 63.1321C81.503 63.0116 80.7956 60.3146 77.9958 59.1845C77.4238 58.9434 77.1378 58.2956 77.3787 57.7079C77.6195 57.1354 78.2668 56.8491 78.8538 57.0902C82.7674 58.6873 83.7007 62.4541 83.7458 62.6048C83.8963 63.2075 83.52 63.8252 82.9029 63.9608C82.8126 63.9759 82.7223 63.991 82.6319 63.991Z" fill="white"/>
</g>
<defs>
<clipPath id="clip0_8829_9732">
<rect width="69" height="65" fill="white" transform="translate(26.9985 57)"/>
</clipPath>
</defs>
</svg>
