<svg width="124" height="124" viewBox="0 0 124 124" fill="none" xmlns="http://www.w3.org/2000/svg">
<rect x="20.5" y="14.5" width="83" height="83" rx="10.5" stroke="white" stroke-width="3"/>
<rect x="39.0908" y="42.9092" width="13.0909" height="4" fill="white"/>
<rect x="73.4546" y="42.9092" width="13.0909" height="4" fill="white"/>
<path d="M55.4546 64.5454C55.4546 63.4408 56.35 62.5454 57.4546 62.5454H66.5455C67.6501 62.5454 68.5455 63.4408 68.5455 64.5454V78.5454H55.4546V64.5454Z" fill="white"/>
<rect x="37.4546" y="46.1816" width="3.27273" height="6.54545" rx="1.63636" fill="#0094FF"/>
<rect x="37.4546" y="76" width="3.27273" height="6.54545" rx="1.63636" fill="#0094FF"/>
<rect x="37.4546" y="56" width="3.27273" height="6.54545" rx="1.63636" fill="#0094FF"/>
<rect x="37.4546" y="85.8184" width="3.27273" height="6.54545" rx="1.63636" fill="#0094FF"/>
<rect x="37.4546" y="65.8184" width="3.27273" height="6.54545" rx="1.63636" fill="#0094FF"/>
<rect x="37.4546" y="95.6367" width="3.27273" height="6.54545" rx="1.63636" fill="#0094FF"/>
<rect x="37.4546" y="105" width="3.27273" height="6.54545" rx="1.63636" fill="#0094FF"/>
<rect x="85" y="46.1816" width="3.27273" height="6.54545" rx="1.63636" fill="#0094FF"/>
<rect x="85" y="76" width="3.27273" height="6.54545" rx="1.63636" fill="#0094FF"/>
<rect x="85" y="56" width="3.27273" height="6.54545" rx="1.63636" fill="#0094FF"/>
<rect x="85" y="85.8184" width="3.27273" height="6.54545" rx="1.63636" fill="#0094FF"/>
<rect x="85" y="65.8184" width="3.27273" height="6.54545" rx="1.63636" fill="#0094FF"/>
<rect x="85" y="95.6367" width="3.27273" height="6.54545" rx="1.63636" fill="#0094FF"/>
<rect x="85" y="105" width="3.27273" height="6.54545" rx="1.63636" fill="#0094FF"/>
</svg>
