<svg width="124" height="124" viewBox="0 0 124 124" fill="none" xmlns="http://www.w3.org/2000/svg">
<g clip-path="url(#clip0_8814_9128)">
<path d="M93.802 72.2218C93.9265 72.0273 93.9944 71.7929 93.9944 71.5469C93.9944 70.5289 93.8529 69.5395 93.5926 68.6016C93.5926 68.5559 93.587 68.5044 93.5757 68.4586C92.4212 61.6072 88.8844 55.3334 83.6216 50.7981C81.0128 48.5448 78.0645 46.7891 74.8672 45.5766C71.5568 44.3184 68.0652 43.6836 64.5001 43.6836C60.9406 43.6836 57.4547 44.3298 54.1386 45.6052C50.9469 46.8348 48.0043 48.6134 45.3842 50.8896C40.1384 55.4535 36.6016 61.7216 35.4188 68.5501C35.1472 69.4995 35.0001 70.5061 35.0001 71.5469C35.0001 71.5641 35.0001 71.5813 35.0001 71.5984C34.9888 71.8443 35.051 72.096 35.1981 72.3247L51.428 97.9005V117.425C51.428 118.123 51.9825 118.684 52.6729 118.684H76.3386C77.0289 118.684 77.5835 118.123 77.5835 117.425V98.2665L93.7907 72.239C93.7964 72.2332 93.802 72.2275 93.802 72.2218ZM75.6538 96.6423H69.9044L75.1332 71.9873C75.1615 71.8672 75.1672 71.7471 75.1558 71.6327C75.1558 71.6041 75.1615 71.5755 75.1615 71.5412C75.1615 66.9888 78.8285 63.2829 83.333 63.2829C87.7243 63.2829 91.3177 66.8001 91.4988 71.1924L75.6538 96.6423ZM53.5897 96.6423L37.4957 71.2839C37.6315 66.8516 41.2419 63.2886 45.6615 63.2886C50.166 63.2886 53.833 66.9946 53.833 71.5469C53.833 71.5755 53.833 71.6041 53.8387 71.6385C53.8273 71.7528 53.8387 71.8729 53.8613 71.993L59.0958 96.6423H53.5897ZM72.6716 71.587L67.3522 96.6423H61.6367L56.3173 71.587C56.3173 71.5698 56.3173 71.5584 56.3173 71.5412C56.3173 66.9888 59.9843 63.2829 64.4888 63.2829C68.9933 63.2829 72.6603 66.9888 72.6603 71.5412C72.6716 71.5584 72.6716 71.5755 72.6716 71.587ZM62.7345 99.1587H66.2713V101.944H62.7345V99.1587ZM64.5001 46.2C75.501 46.2 85.1042 52.8112 89.2862 62.608C87.5829 61.4471 85.5343 60.7665 83.333 60.7665C79.2586 60.7665 75.7104 63.0884 73.9165 66.497C72.1227 63.0941 68.5745 60.7665 64.5001 60.7665C60.4257 60.7665 56.8775 63.0884 55.0836 66.497C53.2897 63.0941 49.7416 60.7665 45.6672 60.7665C43.5224 60.7665 41.5248 61.4127 39.8498 62.5165C44.1506 52.8742 53.816 46.2 64.5001 46.2ZM75.0936 116.167H53.9179V99.1587H60.2446V103.202C60.2446 103.9 60.7991 104.46 61.4895 104.46H67.5163C68.2067 104.46 68.7613 103.9 68.7613 103.202V99.1587H75.0879V116.167H75.0936Z" fill="white"/>
</g>
<rect x="101.026" y="76.6836" width="6.41724" height="6.41724" transform="rotate(28.1317 101.026 76.6836)" fill="#FCC332"/>
<rect x="42.5774" y="15.6836" width="7.5871" height="7.5871" transform="rotate(28.1317 42.5774 15.6836)" fill="#FCC332"/>
<rect x="35.3591" y="94.6982" width="4.62066" height="4.62066" transform="rotate(28.1317 35.3591 94.6982)" fill="#FCC332"/>
<rect x="21.5774" y="81.6836" width="7.5871" height="7.5871" transform="rotate(28.1317 21.5774 81.6836)" fill="#466DFF"/>
<rect x="91.5774" y="35.6836" width="7.5871" height="7.5871" transform="rotate(28.1317 91.5774 35.6836)" fill="#466DFF"/>
<rect x="59.5886" y="26.6836" width="7.20004" height="7.20004" transform="rotate(21.0679 59.5886 26.6836)" fill="#D95EDC"/>
<rect x="57.3167" y="7.6709" width="7.20004" height="7.20004" transform="rotate(-13.4172 57.3167 7.6709)" fill="#466DFF"/>
<rect x="91.1399" y="90.9263" width="5.27767" height="5.27767" transform="rotate(21.0679 91.1399 90.9263)" fill="#D95EDC"/>
<rect x="25.0012" y="66.6836" width="4.38493" height="4.38493" transform="rotate(65.8494 25.0012 66.6836)" fill="#D95EDC"/>
<rect x="19.0002" y="42.6836" width="8.86071" height="8.86071" transform="rotate(-35.7399 19.0002 42.6836)" fill="#8AFCFD"/>
<rect x="98.0002" y="50.6836" width="8.77519" height="8.77519" transform="rotate(-11.0719 98.0002 50.6836)" fill="#8AFCFD"/>
<rect x="73.0002" y="16.3853" width="8.86071" height="8.86071" transform="rotate(-11.0719 73.0002 16.3853)" fill="#8AFCFD"/>
<defs>
<clipPath id="clip0_8814_9128">
<rect width="59" height="75" fill="white" transform="translate(35.0002 43.6836)"/>
</clipPath>
</defs>
</svg>
